<?xml version="1.0" encoding="utf-8" standalone="no"?>
<!DOCTYPE svg PUBLIC "-//W3C//DTD SVG 1.1//EN"
  "http://www.w3.org/Graphics/SVG/1.1/DTD/svg11.dtd">
<svg xmlns:xlink="http://www.w3.org/1999/xlink" width="720pt" height="720pt" viewBox="0 0 720 720" xmlns="http://www.w3.org/2000/svg" version="1.1">
 <metadata>
  <rdf:RDF xmlns:dc="http://purl.org/dc/elements/1.1/" xmlns:cc="http://creativecommons.org/ns#" xmlns:rdf="http://www.w3.org/1999/02/22-rdf-syntax-ns#">
   <cc:Work>
    <dc:type rdf:resource="http://purl.org/dc/dcmitype/StillImage"/>
    <dc:date>2024-07-03T12:38:56.549345</dc:date>
    <dc:format>image/svg+xml</dc:format>
    <dc:creator>
     <cc:Agent>
      <dc:title>Matplotlib v3.8.2, https://matplotlib.org/</dc:title>
     </cc:Agent>
    </dc:creator>
   </cc:Work>
  </rdf:RDF>
 </metadata>
 <defs>
  <style type="text/css">*{stroke-linejoin: round; stroke-linecap: butt}</style>
 </defs>
 <g id="figure_1">
  <g id="patch_1">
   <path d="M 0 720 
L 720 720 
L 720 0 
L 0 0 
z
" style="fill: #ffffff"/>
  </g>
  <g id="axes_1">
   <g id="patch_2">
    <path d="M 90 249.458824 
L 648 249.458824 
L 648 86.4 
L 90 86.4 
z
" style="fill: #ffffff"/>
   </g>
   <g id="matplotlib.axis_1">
    <g id="xtick_1">
     <g id="line2d_1">
      <defs>
       <path id="m69d6239296" d="M 0 0 
L 0 3.5 
" style="stroke: #000000; stroke-width: 0.8"/>
      </defs>
      <g>
       <use xlink:href="#m69d6239296" x="115.363636" y="249.458824" style="stroke: #000000; stroke-width: 0.8"/>
      </g>
     </g>
     <g id="text_1">
      <!-- 0 -->
      <g transform="translate(112.182386 264.057261) scale(0.1 -0.1)">
       <defs>
        <path id="DejaVuSans-30" d="M 2034 4250 
Q 1547 4250 1301 3770 
Q 1056 3291 1056 2328 
Q 1056 1369 1301 889 
Q 1547 409 2034 409 
Q 2525 409 2770 889 
Q 3016 1369 3016 2328 
Q 3016 3291 2770 3770 
Q 2525 4250 2034 4250 
z
M 2034 4750 
Q 2819 4750 3233 4129 
Q 3647 3509 3647 2328 
Q 3647 1150 3233 529 
Q 2819 -91 2034 -91 
Q 1250 -91 836 529 
Q 422 1150 422 2328 
Q 422 3509 836 4129 
Q 1250 4750 2034 4750 
z
" transform="scale(0.015625)"/>
       </defs>
       <use xlink:href="#DejaVuSans-30"/>
      </g>
     </g>
    </g>
    <g id="xtick_2">
     <g id="line2d_2">
      <g>
       <use xlink:href="#m69d6239296" x="178.867984" y="249.458824" style="stroke: #000000; stroke-width: 0.8"/>
      </g>
     </g>
     <g id="text_2">
      <!-- 25 -->
      <g transform="translate(172.505484 264.057261) scale(0.1 -0.1)">
       <defs>
        <path id="DejaVuSans-32" d="M 1228 531 
L 3431 531 
L 3431 0 
L 469 0 
L 469 531 
Q 828 903 1448 1529 
Q 2069 2156 2228 2338 
Q 2531 2678 2651 2914 
Q 2772 3150 2772 3378 
Q 2772 3750 2511 3984 
Q 2250 4219 1831 4219 
Q 1534 4219 1204 4116 
Q 875 4013 500 3803 
L 500 4441 
Q 881 4594 1212 4672 
Q 1544 4750 1819 4750 
Q 2544 4750 2975 4387 
Q 3406 4025 3406 3419 
Q 3406 3131 3298 2873 
Q 3191 2616 2906 2266 
Q 2828 2175 2409 1742 
Q 1991 1309 1228 531 
z
" transform="scale(0.015625)"/>
        <path id="DejaVuSans-35" d="M 691 4666 
L 3169 4666 
L 3169 4134 
L 1269 4134 
L 1269 2991 
Q 1406 3038 1543 3061 
Q 1681 3084 1819 3084 
Q 2600 3084 3056 2656 
Q 3513 2228 3513 1497 
Q 3513 744 3044 326 
Q 2575 -91 1722 -91 
Q 1428 -91 1123 -41 
Q 819 9 494 109 
L 494 744 
Q 775 591 1075 516 
Q 1375 441 1709 441 
Q 2250 441 2565 725 
Q 2881 1009 2881 1497 
Q 2881 1984 2565 2268 
Q 2250 2553 1709 2553 
Q 1456 2553 1204 2497 
Q 953 2441 691 2322 
L 691 4666 
z
" transform="scale(0.015625)"/>
       </defs>
       <use xlink:href="#DejaVuSans-32"/>
       <use xlink:href="#DejaVuSans-35" x="63.623047"/>
      </g>
     </g>
    </g>
    <g id="xtick_3">
     <g id="line2d_3">
      <g>
       <use xlink:href="#m69d6239296" x="242.372331" y="249.458824" style="stroke: #000000; stroke-width: 0.8"/>
      </g>
     </g>
     <g id="text_3">
      <!-- 50 -->
      <g transform="translate(236.009831 264.057261) scale(0.1 -0.1)">
       <use xlink:href="#DejaVuSans-35"/>
       <use xlink:href="#DejaVuSans-30" x="63.623047"/>
      </g>
     </g>
    </g>
    <g id="xtick_4">
     <g id="line2d_4">
      <g>
       <use xlink:href="#m69d6239296" x="305.876679" y="249.458824" style="stroke: #000000; stroke-width: 0.8"/>
      </g>
     </g>
     <g id="text_4">
      <!-- 75 -->
      <g transform="translate(299.514179 264.057261) scale(0.1 -0.1)">
       <defs>
        <path id="DejaVuSans-37" d="M 525 4666 
L 3525 4666 
L 3525 4397 
L 1831 0 
L 1172 0 
L 2766 4134 
L 525 4134 
L 525 4666 
z
" transform="scale(0.015625)"/>
       </defs>
       <use xlink:href="#DejaVuSans-37"/>
       <use xlink:href="#DejaVuSans-35" x="63.623047"/>
      </g>
     </g>
    </g>
    <g id="xtick_5">
     <g id="line2d_5">
      <g>
       <use xlink:href="#m69d6239296" x="369.381026" y="249.458824" style="stroke: #000000; stroke-width: 0.8"/>
      </g>
     </g>
     <g id="text_5">
      <!-- 100 -->
      <g transform="translate(359.837276 264.057261) scale(0.1 -0.1)">
       <defs>
        <path id="DejaVuSans-31" d="M 794 531 
L 1825 531 
L 1825 4091 
L 703 3866 
L 703 4441 
L 1819 4666 
L 2450 4666 
L 2450 531 
L 3481 531 
L 3481 0 
L 794 0 
L 794 531 
z
" transform="scale(0.015625)"/>
       </defs>
       <use xlink:href="#DejaVuSans-31"/>
       <use xlink:href="#DejaVuSans-30" x="63.623047"/>
       <use xlink:href="#DejaVuSans-30" x="127.246094"/>
      </g>
     </g>
    </g>
    <g id="xtick_6">
     <g id="line2d_6">
      <g>
       <use xlink:href="#m69d6239296" x="432.885374" y="249.458824" style="stroke: #000000; stroke-width: 0.8"/>
      </g>
     </g>
     <g id="text_6">
      <!-- 125 -->
      <g transform="translate(423.341624 264.057261) scale(0.1 -0.1)">
       <use xlink:href="#DejaVuSans-31"/>
       <use xlink:href="#DejaVuSans-32" x="63.623047"/>
       <use xlink:href="#DejaVuSans-35" x="127.246094"/>
      </g>
     </g>
    </g>
    <g id="xtick_7">
     <g id="line2d_7">
      <g>
       <use xlink:href="#m69d6239296" x="496.389721" y="249.458824" style="stroke: #000000; stroke-width: 0.8"/>
      </g>
     </g>
     <g id="text_7">
      <!-- 150 -->
      <g transform="translate(486.845971 264.057261) scale(0.1 -0.1)">
       <use xlink:href="#DejaVuSans-31"/>
       <use xlink:href="#DejaVuSans-35" x="63.623047"/>
       <use xlink:href="#DejaVuSans-30" x="127.246094"/>
      </g>
     </g>
    </g>
    <g id="xtick_8">
     <g id="line2d_8">
      <g>
       <use xlink:href="#m69d6239296" x="559.894068" y="249.458824" style="stroke: #000000; stroke-width: 0.8"/>
      </g>
     </g>
     <g id="text_8">
      <!-- 175 -->
      <g transform="translate(550.350318 264.057261) scale(0.1 -0.1)">
       <use xlink:href="#DejaVuSans-31"/>
       <use xlink:href="#DejaVuSans-37" x="63.623047"/>
       <use xlink:href="#DejaVuSans-35" x="127.246094"/>
      </g>
     </g>
    </g>
    <g id="xtick_9">
     <g id="line2d_9">
      <g>
       <use xlink:href="#m69d6239296" x="623.398416" y="249.458824" style="stroke: #000000; stroke-width: 0.8"/>
      </g>
     </g>
     <g id="text_9">
      <!-- 200 -->
      <g transform="translate(613.854666 264.057261) scale(0.1 -0.1)">
       <use xlink:href="#DejaVuSans-32"/>
       <use xlink:href="#DejaVuSans-30" x="63.623047"/>
       <use xlink:href="#DejaVuSans-30" x="127.246094"/>
      </g>
     </g>
    </g>
    <g id="text_10">
     <!-- Time (ms) -->
     <g transform="translate(343.800781 277.735386) scale(0.1 -0.1)">
      <defs>
       <path id="DejaVuSans-54" d="M -19 4666 
L 3928 4666 
L 3928 4134 
L 2272 4134 
L 2272 0 
L 1638 0 
L 1638 4134 
L -19 4134 
L -19 4666 
z
" transform="scale(0.015625)"/>
       <path id="DejaVuSans-69" d="M 603 3500 
L 1178 3500 
L 1178 0 
L 603 0 
L 603 3500 
z
M 603 4863 
L 1178 4863 
L 1178 4134 
L 603 4134 
L 603 4863 
z
" transform="scale(0.015625)"/>
       <path id="DejaVuSans-6d" d="M 3328 2828 
Q 3544 3216 3844 3400 
Q 4144 3584 4550 3584 
Q 5097 3584 5394 3201 
Q 5691 2819 5691 2113 
L 5691 0 
L 5113 0 
L 5113 2094 
Q 5113 2597 4934 2840 
Q 4756 3084 4391 3084 
Q 3944 3084 3684 2787 
Q 3425 2491 3425 1978 
L 3425 0 
L 2847 0 
L 2847 2094 
Q 2847 2600 2669 2842 
Q 2491 3084 2119 3084 
Q 1678 3084 1418 2786 
Q 1159 2488 1159 1978 
L 1159 0 
L 581 0 
L 581 3500 
L 1159 3500 
L 1159 2956 
Q 1356 3278 1631 3431 
Q 1906 3584 2284 3584 
Q 2666 3584 2933 3390 
Q 3200 3197 3328 2828 
z
" transform="scale(0.015625)"/>
       <path id="DejaVuSans-65" d="M 3597 1894 
L 3597 1613 
L 953 1613 
Q 991 1019 1311 708 
Q 1631 397 2203 397 
Q 2534 397 2845 478 
Q 3156 559 3463 722 
L 3463 178 
Q 3153 47 2828 -22 
Q 2503 -91 2169 -91 
Q 1331 -91 842 396 
Q 353 884 353 1716 
Q 353 2575 817 3079 
Q 1281 3584 2069 3584 
Q 2775 3584 3186 3129 
Q 3597 2675 3597 1894 
z
M 3022 2063 
Q 3016 2534 2758 2815 
Q 2500 3097 2075 3097 
Q 1594 3097 1305 2825 
Q 1016 2553 972 2059 
L 3022 2063 
z
" transform="scale(0.015625)"/>
       <path id="DejaVuSans-20" transform="scale(0.015625)"/>
       <path id="DejaVuSans-28" d="M 1984 4856 
Q 1566 4138 1362 3434 
Q 1159 2731 1159 2009 
Q 1159 1288 1364 580 
Q 1569 -128 1984 -844 
L 1484 -844 
Q 1016 -109 783 600 
Q 550 1309 550 2009 
Q 550 2706 781 3412 
Q 1013 4119 1484 4856 
L 1984 4856 
z
" transform="scale(0.015625)"/>
       <path id="DejaVuSans-73" d="M 2834 3397 
L 2834 2853 
Q 2591 2978 2328 3040 
Q 2066 3103 1784 3103 
Q 1356 3103 1142 2972 
Q 928 2841 928 2578 
Q 928 2378 1081 2264 
Q 1234 2150 1697 2047 
L 1894 2003 
Q 2506 1872 2764 1633 
Q 3022 1394 3022 966 
Q 3022 478 2636 193 
Q 2250 -91 1575 -91 
Q 1294 -91 989 -36 
Q 684 19 347 128 
L 347 722 
Q 666 556 975 473 
Q 1284 391 1588 391 
Q 1994 391 2212 530 
Q 2431 669 2431 922 
Q 2431 1156 2273 1281 
Q 2116 1406 1581 1522 
L 1381 1569 
Q 847 1681 609 1914 
Q 372 2147 372 2553 
Q 372 3047 722 3315 
Q 1072 3584 1716 3584 
Q 2034 3584 2315 3537 
Q 2597 3491 2834 3397 
z
" transform="scale(0.015625)"/>
       <path id="DejaVuSans-29" d="M 513 4856 
L 1013 4856 
Q 1481 4119 1714 3412 
Q 1947 2706 1947 2009 
Q 1947 1309 1714 600 
Q 1481 -109 1013 -844 
L 513 -844 
Q 928 -128 1133 580 
Q 1338 1288 1338 2009 
Q 1338 2731 1133 3434 
Q 928 4138 513 4856 
z
" transform="scale(0.015625)"/>
      </defs>
      <use xlink:href="#DejaVuSans-54"/>
      <use xlink:href="#DejaVuSans-69" x="57.958984"/>
      <use xlink:href="#DejaVuSans-6d" x="85.742188"/>
      <use xlink:href="#DejaVuSans-65" x="183.154297"/>
      <use xlink:href="#DejaVuSans-20" x="244.677734"/>
      <use xlink:href="#DejaVuSans-28" x="276.464844"/>
      <use xlink:href="#DejaVuSans-6d" x="315.478516"/>
      <use xlink:href="#DejaVuSans-73" x="412.890625"/>
      <use xlink:href="#DejaVuSans-29" x="464.990234"/>
     </g>
    </g>
   </g>
   <g id="matplotlib.axis_2">
    <g id="ytick_1">
     <g id="line2d_10">
      <defs>
       <path id="m152ee11a67" d="M 0 0 
L -3.5 0 
" style="stroke: #000000; stroke-width: 0.8"/>
      </defs>
      <g>
       <use xlink:href="#m152ee11a67" x="90" y="238.816593" style="stroke: #000000; stroke-width: 0.8"/>
      </g>
     </g>
     <g id="text_11">
      <!-- 100 -->
      <g transform="translate(63.9125 242.615812) scale(0.1 -0.1)">
       <use xlink:href="#DejaVuSans-31"/>
       <use xlink:href="#DejaVuSans-30" x="63.623047"/>
       <use xlink:href="#DejaVuSans-30" x="127.246094"/>
      </g>
     </g>
    </g>
    <g id="ytick_2">
     <g id="line2d_11">
      <g>
       <use xlink:href="#m152ee11a67" x="90" y="209.815558" style="stroke: #000000; stroke-width: 0.8"/>
      </g>
     </g>
     <g id="text_12">
      <!-- 110 -->
      <g transform="translate(63.9125 213.614777) scale(0.1 -0.1)">
       <use xlink:href="#DejaVuSans-31"/>
       <use xlink:href="#DejaVuSans-31" x="63.623047"/>
       <use xlink:href="#DejaVuSans-30" x="127.246094"/>
      </g>
     </g>
    </g>
    <g id="ytick_3">
     <g id="line2d_12">
      <g>
       <use xlink:href="#m152ee11a67" x="90" y="180.814524" style="stroke: #000000; stroke-width: 0.8"/>
      </g>
     </g>
     <g id="text_13">
      <!-- 120 -->
      <g transform="translate(63.9125 184.613742) scale(0.1 -0.1)">
       <use xlink:href="#DejaVuSans-31"/>
       <use xlink:href="#DejaVuSans-32" x="63.623047"/>
       <use xlink:href="#DejaVuSans-30" x="127.246094"/>
      </g>
     </g>
    </g>
    <g id="ytick_4">
     <g id="line2d_13">
      <g>
       <use xlink:href="#m152ee11a67" x="90" y="151.813489" style="stroke: #000000; stroke-width: 0.8"/>
      </g>
     </g>
     <g id="text_14">
      <!-- 130 -->
      <g transform="translate(63.9125 155.612708) scale(0.1 -0.1)">
       <defs>
        <path id="DejaVuSans-33" d="M 2597 2516 
Q 3050 2419 3304 2112 
Q 3559 1806 3559 1356 
Q 3559 666 3084 287 
Q 2609 -91 1734 -91 
Q 1441 -91 1130 -33 
Q 819 25 488 141 
L 488 750 
Q 750 597 1062 519 
Q 1375 441 1716 441 
Q 2309 441 2620 675 
Q 2931 909 2931 1356 
Q 2931 1769 2642 2001 
Q 2353 2234 1838 2234 
L 1294 2234 
L 1294 2753 
L 1863 2753 
Q 2328 2753 2575 2939 
Q 2822 3125 2822 3475 
Q 2822 3834 2567 4026 
Q 2313 4219 1838 4219 
Q 1578 4219 1281 4162 
Q 984 4106 628 3988 
L 628 4550 
Q 988 4650 1302 4700 
Q 1616 4750 1894 4750 
Q 2613 4750 3031 4423 
Q 3450 4097 3450 3541 
Q 3450 3153 3228 2886 
Q 3006 2619 2597 2516 
z
" transform="scale(0.015625)"/>
       </defs>
       <use xlink:href="#DejaVuSans-31"/>
       <use xlink:href="#DejaVuSans-33" x="63.623047"/>
       <use xlink:href="#DejaVuSans-30" x="127.246094"/>
      </g>
     </g>
    </g>
    <g id="ytick_5">
     <g id="line2d_14">
      <g>
       <use xlink:href="#m152ee11a67" x="90" y="122.812454" style="stroke: #000000; stroke-width: 0.8"/>
      </g>
     </g>
     <g id="text_15">
      <!-- 140 -->
      <g transform="translate(63.9125 126.611673) scale(0.1 -0.1)">
       <defs>
        <path id="DejaVuSans-34" d="M 2419 4116 
L 825 1625 
L 2419 1625 
L 2419 4116 
z
M 2253 4666 
L 3047 4666 
L 3047 1625 
L 3713 1625 
L 3713 1100 
L 3047 1100 
L 3047 0 
L 2419 0 
L 2419 1100 
L 313 1100 
L 313 1709 
L 2253 4666 
z
" transform="scale(0.015625)"/>
       </defs>
       <use xlink:href="#DejaVuSans-31"/>
       <use xlink:href="#DejaVuSans-34" x="63.623047"/>
       <use xlink:href="#DejaVuSans-30" x="127.246094"/>
      </g>
     </g>
    </g>
    <g id="ytick_6">
     <g id="line2d_15">
      <g>
       <use xlink:href="#m152ee11a67" x="90" y="93.81142" style="stroke: #000000; stroke-width: 0.8"/>
      </g>
     </g>
     <g id="text_16">
      <!-- 150 -->
      <g transform="translate(63.9125 97.610638) scale(0.1 -0.1)">
       <use xlink:href="#DejaVuSans-31"/>
       <use xlink:href="#DejaVuSans-35" x="63.623047"/>
       <use xlink:href="#DejaVuSans-30" x="127.246094"/>
      </g>
     </g>
    </g>
    <g id="text_17">
     <!-- Synaptic weight (%) -->
     <g transform="translate(57.832812 218.256756) rotate(-90) scale(0.1 -0.1)">
      <defs>
       <path id="DejaVuSans-53" d="M 3425 4513 
L 3425 3897 
Q 3066 4069 2747 4153 
Q 2428 4238 2131 4238 
Q 1616 4238 1336 4038 
Q 1056 3838 1056 3469 
Q 1056 3159 1242 3001 
Q 1428 2844 1947 2747 
L 2328 2669 
Q 3034 2534 3370 2195 
Q 3706 1856 3706 1288 
Q 3706 609 3251 259 
Q 2797 -91 1919 -91 
Q 1588 -91 1214 -16 
Q 841 59 441 206 
L 441 856 
Q 825 641 1194 531 
Q 1563 422 1919 422 
Q 2459 422 2753 634 
Q 3047 847 3047 1241 
Q 3047 1584 2836 1778 
Q 2625 1972 2144 2069 
L 1759 2144 
Q 1053 2284 737 2584 
Q 422 2884 422 3419 
Q 422 4038 858 4394 
Q 1294 4750 2059 4750 
Q 2388 4750 2728 4690 
Q 3069 4631 3425 4513 
z
" transform="scale(0.015625)"/>
       <path id="DejaVuSans-79" d="M 2059 -325 
Q 1816 -950 1584 -1140 
Q 1353 -1331 966 -1331 
L 506 -1331 
L 506 -850 
L 844 -850 
Q 1081 -850 1212 -737 
Q 1344 -625 1503 -206 
L 1606 56 
L 191 3500 
L 800 3500 
L 1894 763 
L 2988 3500 
L 3597 3500 
L 2059 -325 
z
" transform="scale(0.015625)"/>
       <path id="DejaVuSans-6e" d="M 3513 2113 
L 3513 0 
L 2938 0 
L 2938 2094 
Q 2938 2591 2744 2837 
Q 2550 3084 2163 3084 
Q 1697 3084 1428 2787 
Q 1159 2491 1159 1978 
L 1159 0 
L 581 0 
L 581 3500 
L 1159 3500 
L 1159 2956 
Q 1366 3272 1645 3428 
Q 1925 3584 2291 3584 
Q 2894 3584 3203 3211 
Q 3513 2838 3513 2113 
z
" transform="scale(0.015625)"/>
       <path id="DejaVuSans-61" d="M 2194 1759 
Q 1497 1759 1228 1600 
Q 959 1441 959 1056 
Q 959 750 1161 570 
Q 1363 391 1709 391 
Q 2188 391 2477 730 
Q 2766 1069 2766 1631 
L 2766 1759 
L 2194 1759 
z
M 3341 1997 
L 3341 0 
L 2766 0 
L 2766 531 
Q 2569 213 2275 61 
Q 1981 -91 1556 -91 
Q 1019 -91 701 211 
Q 384 513 384 1019 
Q 384 1609 779 1909 
Q 1175 2209 1959 2209 
L 2766 2209 
L 2766 2266 
Q 2766 2663 2505 2880 
Q 2244 3097 1772 3097 
Q 1472 3097 1187 3025 
Q 903 2953 641 2809 
L 641 3341 
Q 956 3463 1253 3523 
Q 1550 3584 1831 3584 
Q 2591 3584 2966 3190 
Q 3341 2797 3341 1997 
z
" transform="scale(0.015625)"/>
       <path id="DejaVuSans-70" d="M 1159 525 
L 1159 -1331 
L 581 -1331 
L 581 3500 
L 1159 3500 
L 1159 2969 
Q 1341 3281 1617 3432 
Q 1894 3584 2278 3584 
Q 2916 3584 3314 3078 
Q 3713 2572 3713 1747 
Q 3713 922 3314 415 
Q 2916 -91 2278 -91 
Q 1894 -91 1617 61 
Q 1341 213 1159 525 
z
M 3116 1747 
Q 3116 2381 2855 2742 
Q 2594 3103 2138 3103 
Q 1681 3103 1420 2742 
Q 1159 2381 1159 1747 
Q 1159 1113 1420 752 
Q 1681 391 2138 391 
Q 2594 391 2855 752 
Q 3116 1113 3116 1747 
z
" transform="scale(0.015625)"/>
       <path id="DejaVuSans-74" d="M 1172 4494 
L 1172 3500 
L 2356 3500 
L 2356 3053 
L 1172 3053 
L 1172 1153 
Q 1172 725 1289 603 
Q 1406 481 1766 481 
L 2356 481 
L 2356 0 
L 1766 0 
Q 1100 0 847 248 
Q 594 497 594 1153 
L 594 3053 
L 172 3053 
L 172 3500 
L 594 3500 
L 594 4494 
L 1172 4494 
z
" transform="scale(0.015625)"/>
       <path id="DejaVuSans-63" d="M 3122 3366 
L 3122 2828 
Q 2878 2963 2633 3030 
Q 2388 3097 2138 3097 
Q 1578 3097 1268 2742 
Q 959 2388 959 1747 
Q 959 1106 1268 751 
Q 1578 397 2138 397 
Q 2388 397 2633 464 
Q 2878 531 3122 666 
L 3122 134 
Q 2881 22 2623 -34 
Q 2366 -91 2075 -91 
Q 1284 -91 818 406 
Q 353 903 353 1747 
Q 353 2603 823 3093 
Q 1294 3584 2113 3584 
Q 2378 3584 2631 3529 
Q 2884 3475 3122 3366 
z
" transform="scale(0.015625)"/>
       <path id="DejaVuSans-77" d="M 269 3500 
L 844 3500 
L 1563 769 
L 2278 3500 
L 2956 3500 
L 3675 769 
L 4391 3500 
L 4966 3500 
L 4050 0 
L 3372 0 
L 2619 2869 
L 1863 0 
L 1184 0 
L 269 3500 
z
" transform="scale(0.015625)"/>
       <path id="DejaVuSans-67" d="M 2906 1791 
Q 2906 2416 2648 2759 
Q 2391 3103 1925 3103 
Q 1463 3103 1205 2759 
Q 947 2416 947 1791 
Q 947 1169 1205 825 
Q 1463 481 1925 481 
Q 2391 481 2648 825 
Q 2906 1169 2906 1791 
z
M 3481 434 
Q 3481 -459 3084 -895 
Q 2688 -1331 1869 -1331 
Q 1566 -1331 1297 -1286 
Q 1028 -1241 775 -1147 
L 775 -588 
Q 1028 -725 1275 -790 
Q 1522 -856 1778 -856 
Q 2344 -856 2625 -561 
Q 2906 -266 2906 331 
L 2906 616 
Q 2728 306 2450 153 
Q 2172 0 1784 0 
Q 1141 0 747 490 
Q 353 981 353 1791 
Q 353 2603 747 3093 
Q 1141 3584 1784 3584 
Q 2172 3584 2450 3431 
Q 2728 3278 2906 2969 
L 2906 3500 
L 3481 3500 
L 3481 434 
z
" transform="scale(0.015625)"/>
       <path id="DejaVuSans-68" d="M 3513 2113 
L 3513 0 
L 2938 0 
L 2938 2094 
Q 2938 2591 2744 2837 
Q 2550 3084 2163 3084 
Q 1697 3084 1428 2787 
Q 1159 2491 1159 1978 
L 1159 0 
L 581 0 
L 581 4863 
L 1159 4863 
L 1159 2956 
Q 1366 3272 1645 3428 
Q 1925 3584 2291 3584 
Q 2894 3584 3203 3211 
Q 3513 2838 3513 2113 
z
" transform="scale(0.015625)"/>
       <path id="DejaVuSans-25" d="M 4653 2053 
Q 4381 2053 4226 1822 
Q 4072 1591 4072 1178 
Q 4072 772 4226 539 
Q 4381 306 4653 306 
Q 4919 306 5073 539 
Q 5228 772 5228 1178 
Q 5228 1588 5073 1820 
Q 4919 2053 4653 2053 
z
M 4653 2450 
Q 5147 2450 5437 2106 
Q 5728 1763 5728 1178 
Q 5728 594 5436 251 
Q 5144 -91 4653 -91 
Q 4153 -91 3862 251 
Q 3572 594 3572 1178 
Q 3572 1766 3864 2108 
Q 4156 2450 4653 2450 
z
M 1428 4353 
Q 1159 4353 1004 4120 
Q 850 3888 850 3481 
Q 850 3069 1003 2837 
Q 1156 2606 1428 2606 
Q 1700 2606 1854 2837 
Q 2009 3069 2009 3481 
Q 2009 3884 1853 4118 
Q 1697 4353 1428 4353 
z
M 4250 4750 
L 4750 4750 
L 1831 -91 
L 1331 -91 
L 4250 4750 
z
M 1428 4750 
Q 1922 4750 2215 4408 
Q 2509 4066 2509 3481 
Q 2509 2891 2217 2550 
Q 1925 2209 1428 2209 
Q 931 2209 642 2551 
Q 353 2894 353 3481 
Q 353 4063 643 4406 
Q 934 4750 1428 4750 
z
" transform="scale(0.015625)"/>
      </defs>
      <use xlink:href="#DejaVuSans-53"/>
      <use xlink:href="#DejaVuSans-79" x="63.476562"/>
      <use xlink:href="#DejaVuSans-6e" x="122.65625"/>
      <use xlink:href="#DejaVuSans-61" x="186.035156"/>
      <use xlink:href="#DejaVuSans-70" x="247.314453"/>
      <use xlink:href="#DejaVuSans-74" x="310.791016"/>
      <use xlink:href="#DejaVuSans-69" x="350"/>
      <use xlink:href="#DejaVuSans-63" x="377.783203"/>
      <use xlink:href="#DejaVuSans-20" x="432.763672"/>
      <use xlink:href="#DejaVuSans-77" x="464.550781"/>
      <use xlink:href="#DejaVuSans-65" x="546.337891"/>
      <use xlink:href="#DejaVuSans-69" x="607.861328"/>
      <use xlink:href="#DejaVuSans-67" x="635.644531"/>
      <use xlink:href="#DejaVuSans-68" x="699.121094"/>
      <use xlink:href="#DejaVuSans-74" x="762.5"/>
      <use xlink:href="#DejaVuSans-20" x="801.708984"/>
      <use xlink:href="#DejaVuSans-28" x="833.496094"/>
      <use xlink:href="#DejaVuSans-25" x="872.509766"/>
      <use xlink:href="#DejaVuSans-29" x="967.529297"/>
     </g>
    </g>
   </g>
   <g id="patch_3">
    <path d="M 90 249.458824 
L 90 86.4 
" style="fill: none; stroke: #000000; stroke-width: 0.8; stroke-linejoin: miter; stroke-linecap: square"/>
   </g>
   <g id="patch_4">
    <path d="M 648 249.458824 
L 648 86.4 
" style="fill: none; stroke: #000000; stroke-width: 0.8; stroke-linejoin: miter; stroke-linecap: square"/>
   </g>
   <g id="patch_5">
    <path d="M 90 249.458824 
L 648 249.458824 
" style="fill: none; stroke: #000000; stroke-width: 0.8; stroke-linejoin: miter; stroke-linecap: square"/>
   </g>
   <g id="patch_6">
    <path d="M 90 86.4 
L 648 86.4 
" style="fill: none; stroke: #000000; stroke-width: 0.8; stroke-linejoin: miter; stroke-linecap: square"/>
   </g>
   <g id="line2d_16">
    <path d="M 90 180.814593 
L 648 180.814593 
" clip-path="url(#p519e233a3b)" style="fill: none; stroke-dasharray: 5.55,2.4; stroke-dashoffset: 0; stroke: #dddddd; stroke-width: 1.5"/>
   </g>
   <g id="line2d_17">
    <path d="M 90 93.811765 
L 648 93.811765 
" clip-path="url(#p519e233a3b)" style="fill: none; stroke-dasharray: 9.6,2.4,1.5,2.4; stroke-dashoffset: 0; stroke: #dddddd; stroke-width: 1.5"/>
   </g>
   <g id="legend_1">
    <g id="patch_7">
     <path d="M 535.751562 153.1125 
L 641 153.1125 
Q 643 153.1125 643 151.1125 
L 643 93.4 
Q 643 91.4 641 91.4 
L 535.751562 91.4 
Q 533.751562 91.4 533.751562 93.4 
L 533.751562 151.1125 
Q 533.751562 153.1125 535.751562 153.1125 
z
" style="fill: #ffffff; opacity: 0.8; stroke: #cccccc; stroke-linejoin: miter"/>
    </g>
    <g id="line2d_18">
     <path d="M 537.751562 99.498437 
L 547.751562 99.498437 
L 557.751562 99.498437 
" style="fill: none; stroke: #800000; stroke-width: 1.5; stroke-linecap: square"/>
    </g>
    <g id="text_18">
     <!-- h -->
     <g transform="translate(565.751562 102.998437) scale(0.1 -0.1)">
      <use xlink:href="#DejaVuSans-68"/>
     </g>
    </g>
    <g id="line2d_19">
     <path d="M 537.751562 114.176562 
L 547.751562 114.176562 
L 557.751562 114.176562 
" style="fill: none; stroke: #1f77b4; stroke-width: 1.5; stroke-linecap: square"/>
    </g>
    <g id="text_19">
     <!-- z -->
     <g transform="translate(565.751562 117.676562) scale(0.1 -0.1)">
      <defs>
       <path id="DejaVuSans-7a" d="M 353 3500 
L 3084 3500 
L 3084 2975 
L 922 459 
L 3084 459 
L 3084 0 
L 275 0 
L 275 525 
L 2438 3041 
L 353 3041 
L 353 3500 
z
" transform="scale(0.015625)"/>
      </defs>
      <use xlink:href="#DejaVuSans-7a"/>
     </g>
    </g>
    <g id="line2d_20">
     <path d="M 537.751562 128.854687 
L 547.751562 128.854687 
L 557.751562 128.854687 
" style="fill: none; stroke-dasharray: 9.6,2.4,1.5,2.4; stroke-dashoffset: 0; stroke: #dddddd; stroke-width: 1.5"/>
    </g>
    <g id="text_20">
     <!-- Protein thresh. -->
     <g transform="translate(565.751562 132.354687) scale(0.1 -0.1)">
      <defs>
       <path id="DejaVuSans-50" d="M 1259 4147 
L 1259 2394 
L 2053 2394 
Q 2494 2394 2734 2622 
Q 2975 2850 2975 3272 
Q 2975 3691 2734 3919 
Q 2494 4147 2053 4147 
L 1259 4147 
z
M 628 4666 
L 2053 4666 
Q 2838 4666 3239 4311 
Q 3641 3956 3641 3272 
Q 3641 2581 3239 2228 
Q 2838 1875 2053 1875 
L 1259 1875 
L 1259 0 
L 628 0 
L 628 4666 
z
" transform="scale(0.015625)"/>
       <path id="DejaVuSans-72" d="M 2631 2963 
Q 2534 3019 2420 3045 
Q 2306 3072 2169 3072 
Q 1681 3072 1420 2755 
Q 1159 2438 1159 1844 
L 1159 0 
L 581 0 
L 581 3500 
L 1159 3500 
L 1159 2956 
Q 1341 3275 1631 3429 
Q 1922 3584 2338 3584 
Q 2397 3584 2469 3576 
Q 2541 3569 2628 3553 
L 2631 2963 
z
" transform="scale(0.015625)"/>
       <path id="DejaVuSans-6f" d="M 1959 3097 
Q 1497 3097 1228 2736 
Q 959 2375 959 1747 
Q 959 1119 1226 758 
Q 1494 397 1959 397 
Q 2419 397 2687 759 
Q 2956 1122 2956 1747 
Q 2956 2369 2687 2733 
Q 2419 3097 1959 3097 
z
M 1959 3584 
Q 2709 3584 3137 3096 
Q 3566 2609 3566 1747 
Q 3566 888 3137 398 
Q 2709 -91 1959 -91 
Q 1206 -91 779 398 
Q 353 888 353 1747 
Q 353 2609 779 3096 
Q 1206 3584 1959 3584 
z
" transform="scale(0.015625)"/>
       <path id="DejaVuSans-2e" d="M 684 794 
L 1344 794 
L 1344 0 
L 684 0 
L 684 794 
z
" transform="scale(0.015625)"/>
      </defs>
      <use xlink:href="#DejaVuSans-50"/>
      <use xlink:href="#DejaVuSans-72" x="58.552734"/>
      <use xlink:href="#DejaVuSans-6f" x="97.416016"/>
      <use xlink:href="#DejaVuSans-74" x="158.597656"/>
      <use xlink:href="#DejaVuSans-65" x="197.806641"/>
      <use xlink:href="#DejaVuSans-69" x="259.330078"/>
      <use xlink:href="#DejaVuSans-6e" x="287.113281"/>
      <use xlink:href="#DejaVuSans-20" x="350.492188"/>
      <use xlink:href="#DejaVuSans-74" x="382.279297"/>
      <use xlink:href="#DejaVuSans-68" x="421.488281"/>
      <use xlink:href="#DejaVuSans-72" x="484.867188"/>
      <use xlink:href="#DejaVuSans-65" x="523.730469"/>
      <use xlink:href="#DejaVuSans-73" x="585.253906"/>
      <use xlink:href="#DejaVuSans-68" x="637.353516"/>
      <use xlink:href="#DejaVuSans-2e" x="700.732422"/>
     </g>
    </g>
    <g id="line2d_21">
     <path d="M 537.751562 143.532812 
L 547.751562 143.532812 
L 557.751562 143.532812 
" style="fill: none; stroke-dasharray: 5.55,2.4; stroke-dashoffset: 0; stroke: #dddddd; stroke-width: 1.5"/>
    </g>
    <g id="text_21">
     <!-- Tag thresh. -->
     <g transform="translate(565.751562 147.032812) scale(0.1 -0.1)">
      <use xlink:href="#DejaVuSans-54"/>
      <use xlink:href="#DejaVuSans-61" x="44.583984"/>
      <use xlink:href="#DejaVuSans-67" x="105.863281"/>
      <use xlink:href="#DejaVuSans-20" x="169.339844"/>
      <use xlink:href="#DejaVuSans-74" x="201.126953"/>
      <use xlink:href="#DejaVuSans-68" x="240.335938"/>
      <use xlink:href="#DejaVuSans-72" x="303.714844"/>
      <use xlink:href="#DejaVuSans-65" x="342.578125"/>
      <use xlink:href="#DejaVuSans-73" x="404.101562"/>
      <use xlink:href="#DejaVuSans-68" x="456.201172"/>
      <use xlink:href="#DejaVuSans-2e" x="519.580078"/>
     </g>
    </g>
   </g>
   <g id="line2d_22">
    <path d="M 115.363636 238.816593 
L 622.636364 238.816593 
L 622.636364 238.816593 
" clip-path="url(#p519e233a3b)" style="fill: none; stroke: #1f77b4; stroke-width: 1.5; stroke-linecap: square"/>
   </g>
   <g id="line2d_23">
    <path d="M 115.363636 238.816593 
L 213.668366 238.816593 
L 214.430418 239.067351 
L 215.954523 239.144411 
L 216.462557 238.981394 
L 216.970592 238.942369 
L 217.478627 239.096143 
L 219.256749 239.152445 
L 219.764784 239.078983 
L 220.780853 239.471316 
L 221.288888 239.335776 
L 222.558975 239.472848 
L 223.06701 239.457075 
L 224.083079 239.773958 
L 225.099149 239.590419 
L 225.861201 239.445129 
L 228.401375 240.162537 
L 229.671462 240.267585 
L 230.687531 240.23064 
L 231.703601 240.250087 
L 232.211636 240.217101 
L 233.227705 239.715934 
L 233.989757 239.549886 
L 234.497792 239.556384 
L 235.005827 239.318853 
L 235.513862 239.247363 
L 236.021896 239.362524 
L 236.529931 239.361081 
L 237.800018 239.597969 
L 238.308053 239.471265 
L 239.832157 239.849645 
L 240.340192 239.637551 
L 240.848227 239.552957 
L 241.102244 239.397571 
L 242.626349 239.664053 
L 243.134383 239.533922 
L 244.150453 239.680076 
L 244.912505 239.867544 
L 246.944644 239.650221 
L 247.452679 239.486691 
L 247.960714 239.521519 
L 248.722766 239.47565 
L 249.230801 239.794694 
L 249.738836 239.786021 
L 250.24687 239.623969 
L 254.565166 239.572676 
L 255.073201 239.773985 
L 256.08927 239.81471 
L 256.343288 239.742372 
L 256.851322 239.724119 
L 258.883462 240.06651 
L 260.661583 239.943438 
L 261.677653 240.075537 
L 262.185688 240.402755 
L 263.201757 240.666972 
L 263.709792 240.640811 
L 263.963809 240.457378 
L 264.979879 240.804585 
L 265.995948 240.853475 
L 267.012018 240.944274 
L 268.282105 240.806706 
L 268.79014 240.89437 
L 269.298175 240.832337 
L 269.806209 240.627603 
L 270.822279 240.774586 
L 271.584331 240.58624 
L 273.108435 240.474589 
L 273.61647 240.598158 
L 274.124505 240.601629 
L 274.63254 240.778381 
L 275.902627 240.842273 
L 276.410661 241.04551 
L 277.426731 241.101321 
L 278.442801 240.99114 
L 278.950835 240.9559 
L 279.204853 241.092964 
L 280.220922 241.242097 
L 280.728957 241.485786 
L 281.236992 241.447424 
L 282.253061 241.630407 
L 283.015114 241.450242 
L 284.031183 241.578617 
L 284.539218 241.533096 
L 286.063322 241.873912 
L 286.825374 241.920672 
L 289.873583 242.047059 
L 290.635635 241.848332 
L 291.14367 241.55997 
L 291.651705 241.638922 
L 292.15974 241.430977 
L 292.667774 241.512209 
L 294.445896 241.23789 
L 294.953931 241.078438 
L 295.461966 240.758057 
L 298.764192 239.88689 
L 299.272227 239.429882 
L 300.796331 238.727274 
L 301.304366 238.900605 
L 302.574453 238.154563 
L 303.082487 238.208835 
L 304.098557 237.862133 
L 304.606592 237.472127 
L 305.114626 237.433053 
L 305.876679 237.019544 
L 306.892748 236.877704 
L 307.400783 236.499149 
L 307.908818 236.403202 
L 308.924887 236.432069 
L 309.68694 236.147345 
L 310.703009 236.019832 
L 311.211044 235.909785 
L 312.735148 236.227816 
L 314.005235 236.136588 
L 315.529339 236.213196 
L 316.037374 235.98162 
L 317.307461 235.944433 
L 317.815496 235.838305 
L 318.831566 235.373077 
L 320.35567 235.076429 
L 321.117722 234.262623 
L 322.133792 233.739787 
L 323.149861 233.217739 
L 323.657896 233.091181 
L 324.673965 233.057113 
L 324.927983 232.763935 
L 325.436018 232.807126 
L 326.452087 232.388787 
L 326.960122 232.294567 
L 328.738244 231.530307 
L 329.246279 231.530087 
L 329.754313 231.654325 
L 330.770383 231.233432 
L 331.278418 231.130121 
L 331.786452 230.772445 
L 332.294487 230.571255 
L 332.548505 230.659756 
L 333.056539 230.579018 
L 335.088678 229.751982 
L 336.358765 229.519366 
L 337.88287 229.166521 
L 338.390905 229.212609 
L 338.898939 228.967615 
L 341.185096 228.493716 
L 341.693131 228.240632 
L 342.7092 228.074749 
L 343.217235 227.973071 
L 344.995357 227.079113 
L 345.503391 227.004445 
L 346.011426 227.150818 
L 347.027496 227.165817 
L 350.329722 227.329733 
L 351.599809 227.23257 
L 352.615878 227.425343 
L 354.139983 227.166921 
L 356.934174 227.451301 
L 357.950244 227.725089 
L 358.458278 227.783912 
L 359.22033 227.636335 
L 360.2364 227.776947 
L 360.744435 227.544122 
L 361.25247 227.50693 
L 362.268539 227.583569 
L 363.030591 227.380349 
L 364.554696 227.802551 
L 365.06273 227.716053 
L 365.570765 227.997681 
L 366.0788 227.871893 
L 369.889061 228.599162 
L 370.651113 228.549127 
L 371.159148 228.533011 
L 371.667183 228.339408 
L 372.683252 228.190169 
L 375.985478 228.552048 
L 376.493513 228.478051 
L 377.001548 228.524128 
L 377.509583 228.733474 
L 378.77967 228.777271 
L 379.287704 228.582049 
L 380.303774 228.564788 
L 380.811809 228.593833 
L 381.319843 228.765841 
L 383.097965 228.818419 
L 383.606 228.781135 
L 384.114035 228.883193 
L 384.622069 228.819313 
L 385.130104 228.930449 
L 386.908226 228.829951 
L 387.416261 228.728817 
L 387.924296 228.800871 
L 388.43233 228.605549 
L 391.734556 228.662882 
L 392.242591 228.828807 
L 394.528748 228.590334 
L 395.036782 228.311658 
L 396.560887 228.694992 
L 397.830974 229.127718 
L 398.847043 229.182207 
L 399.355078 229.393787 
L 400.371148 229.520658 
L 401.641235 229.55441 
L 402.657304 229.510082 
L 403.165339 229.381795 
L 403.673374 229.732494 
L 404.943461 229.736274 
L 405.451495 229.574562 
L 406.9756 229.842094 
L 409.261756 229.932776 
L 410.785861 229.838881 
L 411.293895 229.870114 
L 411.80193 229.702283 
L 414.596121 229.971697 
L 415.104156 229.84458 
L 416.374243 230.066519 
L 416.882278 230.035305 
L 417.898348 230.17134 
L 418.914417 229.964349 
L 420.692539 229.727886 
L 421.200574 229.775822 
L 421.708608 229.936844 
L 422.724678 229.876168 
L 423.232713 230.078659 
L 423.740747 229.964591 
L 423.994765 230.109788 
L 425.010834 229.982721 
L 425.518869 230.116505 
L 428.821095 229.701356 
L 429.837165 229.927359 
L 430.3452 229.806707 
L 430.853234 229.972288 
L 432.631356 229.71624 
L 435.425547 229.900022 
L 435.933582 230.039282 
L 436.441617 230.001854 
L 436.949652 230.143656 
L 438.473756 230.090842 
L 439.235808 230.201976 
L 439.743843 229.969245 
L 441.267947 229.728755 
L 442.284017 229.846783 
L 443.554104 229.723604 
L 444.062139 229.929081 
L 445.078208 229.868352 
L 445.586243 230.016886 
L 446.094278 229.893783 
L 446.85633 229.998039 
L 447.364365 229.928348 
L 450.666591 230.525677 
L 451.68266 230.605566 
L 452.190695 230.671335 
L 452.69873 230.874339 
L 453.206765 230.720958 
L 453.714799 230.698058 
L 454.476852 230.537184 
L 457.017026 230.816292 
L 457.52506 230.974448 
L 458.287112 231.085303 
L 459.303182 231.531011 
L 459.811217 231.53861 
L 461.335321 231.989531 
L 461.843356 231.83991 
L 462.097373 231.889878 
L 463.113443 231.624151 
L 465.145582 231.805776 
L 465.907634 231.71408 
L 466.415669 231.824892 
L 466.923704 231.724269 
L 467.431739 231.887061 
L 467.939773 231.875682 
L 469.717895 232.169634 
L 472.258069 232.293817 
L 472.766104 232.501657 
L 473.528156 232.561002 
L 474.036191 232.429556 
L 474.544225 232.5978 
L 475.560295 232.277226 
L 478.354486 232.541495 
L 478.862521 232.502431 
L 479.370556 232.633171 
L 480.386625 232.625487 
L 481.656712 232.942998 
L 482.672782 232.85414 
L 483.688851 232.730388 
L 484.196886 232.667753 
L 485.975008 233.010316 
L 486.991078 233.017043 
L 487.499112 233.151531 
L 488.007147 233.008197 
L 488.769199 233.138355 
L 489.277234 233.338482 
L 489.785269 233.230424 
L 491.309373 233.44302 
L 492.57946 233.235802 
L 495.119634 233.795502 
L 496.389721 233.634996 
L 496.897756 233.663105 
L 498.42186 233.236396 
L 499.945964 233.273539 
L 500.199982 233.097328 
L 503.24819 233.376791 
L 504.010243 233.320768 
L 505.026312 233.593285 
L 505.534347 233.382085 
L 507.820503 233.488111 
L 508.328538 233.658051 
L 513.154869 234.206255 
L 513.662903 234.4048 
L 515.441025 234.37628 
L 515.94906 234.258356 
L 517.473164 234.30801 
L 622.636364 234.308038 
L 622.636364 234.308038 
" clip-path="url(#p519e233a3b)" style="fill: none; stroke: #800000; stroke-width: 1.5; stroke-linecap: square"/>
   </g>
  </g>
  <g id="axes_2">
   <g id="patch_8">
    <path d="M 90 445.129412 
L 648 445.129412 
L 648 282.070588 
L 90 282.070588 
z
" style="fill: #ffffff"/>
   </g>
   <g id="matplotlib.axis_3">
    <g id="xtick_10">
     <g id="line2d_24">
      <g>
       <use xlink:href="#m69d6239296" x="115.363636" y="445.129412" style="stroke: #000000; stroke-width: 0.8"/>
      </g>
     </g>
     <g id="text_22">
      <!-- 0 -->
      <g transform="translate(112.182386 459.727849) scale(0.1 -0.1)">
       <use xlink:href="#DejaVuSans-30"/>
      </g>
     </g>
    </g>
    <g id="xtick_11">
     <g id="line2d_25">
      <g>
       <use xlink:href="#m69d6239296" x="178.867984" y="445.129412" style="stroke: #000000; stroke-width: 0.8"/>
      </g>
     </g>
     <g id="text_23">
      <!-- 25 -->
      <g transform="translate(172.505484 459.727849) scale(0.1 -0.1)">
       <use xlink:href="#DejaVuSans-32"/>
       <use xlink:href="#DejaVuSans-35" x="63.623047"/>
      </g>
     </g>
    </g>
    <g id="xtick_12">
     <g id="line2d_26">
      <g>
       <use xlink:href="#m69d6239296" x="242.372331" y="445.129412" style="stroke: #000000; stroke-width: 0.8"/>
      </g>
     </g>
     <g id="text_24">
      <!-- 50 -->
      <g transform="translate(236.009831 459.727849) scale(0.1 -0.1)">
       <use xlink:href="#DejaVuSans-35"/>
       <use xlink:href="#DejaVuSans-30" x="63.623047"/>
      </g>
     </g>
    </g>
    <g id="xtick_13">
     <g id="line2d_27">
      <g>
       <use xlink:href="#m69d6239296" x="305.876679" y="445.129412" style="stroke: #000000; stroke-width: 0.8"/>
      </g>
     </g>
     <g id="text_25">
      <!-- 75 -->
      <g transform="translate(299.514179 459.727849) scale(0.1 -0.1)">
       <use xlink:href="#DejaVuSans-37"/>
       <use xlink:href="#DejaVuSans-35" x="63.623047"/>
      </g>
     </g>
    </g>
    <g id="xtick_14">
     <g id="line2d_28">
      <g>
       <use xlink:href="#m69d6239296" x="369.381026" y="445.129412" style="stroke: #000000; stroke-width: 0.8"/>
      </g>
     </g>
     <g id="text_26">
      <!-- 100 -->
      <g transform="translate(359.837276 459.727849) scale(0.1 -0.1)">
       <use xlink:href="#DejaVuSans-31"/>
       <use xlink:href="#DejaVuSans-30" x="63.623047"/>
       <use xlink:href="#DejaVuSans-30" x="127.246094"/>
      </g>
     </g>
    </g>
    <g id="xtick_15">
     <g id="line2d_29">
      <g>
       <use xlink:href="#m69d6239296" x="432.885374" y="445.129412" style="stroke: #000000; stroke-width: 0.8"/>
      </g>
     </g>
     <g id="text_27">
      <!-- 125 -->
      <g transform="translate(423.341624 459.727849) scale(0.1 -0.1)">
       <use xlink:href="#DejaVuSans-31"/>
       <use xlink:href="#DejaVuSans-32" x="63.623047"/>
       <use xlink:href="#DejaVuSans-35" x="127.246094"/>
      </g>
     </g>
    </g>
    <g id="xtick_16">
     <g id="line2d_30">
      <g>
       <use xlink:href="#m69d6239296" x="496.389721" y="445.129412" style="stroke: #000000; stroke-width: 0.8"/>
      </g>
     </g>
     <g id="text_28">
      <!-- 150 -->
      <g transform="translate(486.845971 459.727849) scale(0.1 -0.1)">
       <use xlink:href="#DejaVuSans-31"/>
       <use xlink:href="#DejaVuSans-35" x="63.623047"/>
       <use xlink:href="#DejaVuSans-30" x="127.246094"/>
      </g>
     </g>
    </g>
    <g id="xtick_17">
     <g id="line2d_31">
      <g>
       <use xlink:href="#m69d6239296" x="559.894068" y="445.129412" style="stroke: #000000; stroke-width: 0.8"/>
      </g>
     </g>
     <g id="text_29">
      <!-- 175 -->
      <g transform="translate(550.350318 459.727849) scale(0.1 -0.1)">
       <use xlink:href="#DejaVuSans-31"/>
       <use xlink:href="#DejaVuSans-37" x="63.623047"/>
       <use xlink:href="#DejaVuSans-35" x="127.246094"/>
      </g>
     </g>
    </g>
    <g id="xtick_18">
     <g id="line2d_32">
      <g>
       <use xlink:href="#m69d6239296" x="623.398416" y="445.129412" style="stroke: #000000; stroke-width: 0.8"/>
      </g>
     </g>
     <g id="text_30">
      <!-- 200 -->
      <g transform="translate(613.854666 459.727849) scale(0.1 -0.1)">
       <use xlink:href="#DejaVuSans-32"/>
       <use xlink:href="#DejaVuSans-30" x="63.623047"/>
       <use xlink:href="#DejaVuSans-30" x="127.246094"/>
      </g>
     </g>
    </g>
    <g id="text_31">
     <!-- Time (ms) -->
     <g transform="translate(343.800781 473.405974) scale(0.1 -0.1)">
      <use xlink:href="#DejaVuSans-54"/>
      <use xlink:href="#DejaVuSans-69" x="57.958984"/>
      <use xlink:href="#DejaVuSans-6d" x="85.742188"/>
      <use xlink:href="#DejaVuSans-65" x="183.154297"/>
      <use xlink:href="#DejaVuSans-20" x="244.677734"/>
      <use xlink:href="#DejaVuSans-28" x="276.464844"/>
      <use xlink:href="#DejaVuSans-6d" x="315.478516"/>
      <use xlink:href="#DejaVuSans-73" x="412.890625"/>
      <use xlink:href="#DejaVuSans-29" x="464.990234"/>
     </g>
    </g>
   </g>
   <g id="matplotlib.axis_4">
    <g id="ytick_7">
     <g id="line2d_33">
      <g>
       <use xlink:href="#m152ee11a67" x="90" y="437.717647" style="stroke: #000000; stroke-width: 0.8"/>
      </g>
     </g>
     <g id="text_32">
      <!-- −65.0 -->
      <g transform="translate(52.354687 441.516866) scale(0.1 -0.1)">
       <defs>
        <path id="DejaVuSans-2212" d="M 678 2272 
L 4684 2272 
L 4684 1741 
L 678 1741 
L 678 2272 
z
" transform="scale(0.015625)"/>
        <path id="DejaVuSans-36" d="M 2113 2584 
Q 1688 2584 1439 2293 
Q 1191 2003 1191 1497 
Q 1191 994 1439 701 
Q 1688 409 2113 409 
Q 2538 409 2786 701 
Q 3034 994 3034 1497 
Q 3034 2003 2786 2293 
Q 2538 2584 2113 2584 
z
M 3366 4563 
L 3366 3988 
Q 3128 4100 2886 4159 
Q 2644 4219 2406 4219 
Q 1781 4219 1451 3797 
Q 1122 3375 1075 2522 
Q 1259 2794 1537 2939 
Q 1816 3084 2150 3084 
Q 2853 3084 3261 2657 
Q 3669 2231 3669 1497 
Q 3669 778 3244 343 
Q 2819 -91 2113 -91 
Q 1303 -91 875 529 
Q 447 1150 447 2328 
Q 447 3434 972 4092 
Q 1497 4750 2381 4750 
Q 2619 4750 2861 4703 
Q 3103 4656 3366 4563 
z
" transform="scale(0.015625)"/>
       </defs>
       <use xlink:href="#DejaVuSans-2212"/>
       <use xlink:href="#DejaVuSans-36" x="83.789062"/>
       <use xlink:href="#DejaVuSans-35" x="147.412109"/>
       <use xlink:href="#DejaVuSans-2e" x="211.035156"/>
       <use xlink:href="#DejaVuSans-30" x="242.822266"/>
      </g>
     </g>
    </g>
    <g id="ytick_8">
     <g id="line2d_34">
      <g>
       <use xlink:href="#m152ee11a67" x="90" y="404.729828" style="stroke: #000000; stroke-width: 0.8"/>
      </g>
     </g>
     <g id="text_33">
      <!-- −64.5 -->
      <g transform="translate(52.354687 408.529046) scale(0.1 -0.1)">
       <use xlink:href="#DejaVuSans-2212"/>
       <use xlink:href="#DejaVuSans-36" x="83.789062"/>
       <use xlink:href="#DejaVuSans-34" x="147.412109"/>
       <use xlink:href="#DejaVuSans-2e" x="211.035156"/>
       <use xlink:href="#DejaVuSans-35" x="242.822266"/>
      </g>
     </g>
    </g>
    <g id="ytick_9">
     <g id="line2d_35">
      <g>
       <use xlink:href="#m152ee11a67" x="90" y="371.742008" style="stroke: #000000; stroke-width: 0.8"/>
      </g>
     </g>
     <g id="text_34">
      <!-- −64.0 -->
      <g transform="translate(52.354687 375.541227) scale(0.1 -0.1)">
       <use xlink:href="#DejaVuSans-2212"/>
       <use xlink:href="#DejaVuSans-36" x="83.789062"/>
       <use xlink:href="#DejaVuSans-34" x="147.412109"/>
       <use xlink:href="#DejaVuSans-2e" x="211.035156"/>
       <use xlink:href="#DejaVuSans-30" x="242.822266"/>
      </g>
     </g>
    </g>
    <g id="ytick_10">
     <g id="line2d_36">
      <g>
       <use xlink:href="#m152ee11a67" x="90" y="338.754189" style="stroke: #000000; stroke-width: 0.8"/>
      </g>
     </g>
     <g id="text_35">
      <!-- −63.5 -->
      <g transform="translate(52.354687 342.553408) scale(0.1 -0.1)">
       <use xlink:href="#DejaVuSans-2212"/>
       <use xlink:href="#DejaVuSans-36" x="83.789062"/>
       <use xlink:href="#DejaVuSans-33" x="147.412109"/>
       <use xlink:href="#DejaVuSans-2e" x="211.035156"/>
       <use xlink:href="#DejaVuSans-35" x="242.822266"/>
      </g>
     </g>
    </g>
    <g id="ytick_11">
     <g id="line2d_37">
      <g>
       <use xlink:href="#m152ee11a67" x="90" y="305.76637" style="stroke: #000000; stroke-width: 0.8"/>
      </g>
     </g>
     <g id="text_36">
      <!-- −63.0 -->
      <g transform="translate(52.354687 309.565588) scale(0.1 -0.1)">
       <use xlink:href="#DejaVuSans-2212"/>
       <use xlink:href="#DejaVuSans-36" x="83.789062"/>
       <use xlink:href="#DejaVuSans-33" x="147.412109"/>
       <use xlink:href="#DejaVuSans-2e" x="211.035156"/>
       <use xlink:href="#DejaVuSans-30" x="242.822266"/>
      </g>
     </g>
    </g>
    <g id="text_37">
     <!-- Membrane potential (mV) -->
     <g transform="translate(46.275 428.011719) rotate(-90) scale(0.1 -0.1)">
      <defs>
       <path id="DejaVuSans-4d" d="M 628 4666 
L 1569 4666 
L 2759 1491 
L 3956 4666 
L 4897 4666 
L 4897 0 
L 4281 0 
L 4281 4097 
L 3078 897 
L 2444 897 
L 1241 4097 
L 1241 0 
L 628 0 
L 628 4666 
z
" transform="scale(0.015625)"/>
       <path id="DejaVuSans-62" d="M 3116 1747 
Q 3116 2381 2855 2742 
Q 2594 3103 2138 3103 
Q 1681 3103 1420 2742 
Q 1159 2381 1159 1747 
Q 1159 1113 1420 752 
Q 1681 391 2138 391 
Q 2594 391 2855 752 
Q 3116 1113 3116 1747 
z
M 1159 2969 
Q 1341 3281 1617 3432 
Q 1894 3584 2278 3584 
Q 2916 3584 3314 3078 
Q 3713 2572 3713 1747 
Q 3713 922 3314 415 
Q 2916 -91 2278 -91 
Q 1894 -91 1617 61 
Q 1341 213 1159 525 
L 1159 0 
L 581 0 
L 581 4863 
L 1159 4863 
L 1159 2969 
z
" transform="scale(0.015625)"/>
       <path id="DejaVuSans-6c" d="M 603 4863 
L 1178 4863 
L 1178 0 
L 603 0 
L 603 4863 
z
" transform="scale(0.015625)"/>
       <path id="DejaVuSans-56" d="M 1831 0 
L 50 4666 
L 709 4666 
L 2188 738 
L 3669 4666 
L 4325 4666 
L 2547 0 
L 1831 0 
z
" transform="scale(0.015625)"/>
      </defs>
      <use xlink:href="#DejaVuSans-4d"/>
      <use xlink:href="#DejaVuSans-65" x="86.279297"/>
      <use xlink:href="#DejaVuSans-6d" x="147.802734"/>
      <use xlink:href="#DejaVuSans-62" x="245.214844"/>
      <use xlink:href="#DejaVuSans-72" x="308.691406"/>
      <use xlink:href="#DejaVuSans-61" x="349.804688"/>
      <use xlink:href="#DejaVuSans-6e" x="411.083984"/>
      <use xlink:href="#DejaVuSans-65" x="474.462891"/>
      <use xlink:href="#DejaVuSans-20" x="535.986328"/>
      <use xlink:href="#DejaVuSans-70" x="567.773438"/>
      <use xlink:href="#DejaVuSans-6f" x="631.25"/>
      <use xlink:href="#DejaVuSans-74" x="692.431641"/>
      <use xlink:href="#DejaVuSans-65" x="731.640625"/>
      <use xlink:href="#DejaVuSans-6e" x="793.164062"/>
      <use xlink:href="#DejaVuSans-74" x="856.542969"/>
      <use xlink:href="#DejaVuSans-69" x="895.751953"/>
      <use xlink:href="#DejaVuSans-61" x="923.535156"/>
      <use xlink:href="#DejaVuSans-6c" x="984.814453"/>
      <use xlink:href="#DejaVuSans-20" x="1012.597656"/>
      <use xlink:href="#DejaVuSans-28" x="1044.384766"/>
      <use xlink:href="#DejaVuSans-6d" x="1083.398438"/>
      <use xlink:href="#DejaVuSans-56" x="1180.810547"/>
      <use xlink:href="#DejaVuSans-29" x="1249.21875"/>
     </g>
    </g>
   </g>
   <g id="patch_9">
    <path d="M 90 445.129412 
L 90 282.070588 
" style="fill: none; stroke: #000000; stroke-width: 0.8; stroke-linejoin: miter; stroke-linecap: square"/>
   </g>
   <g id="patch_10">
    <path d="M 648 445.129412 
L 648 282.070588 
" style="fill: none; stroke: #000000; stroke-width: 0.8; stroke-linejoin: miter; stroke-linecap: square"/>
   </g>
   <g id="patch_11">
    <path d="M 90 445.129412 
L 648 445.129412 
" style="fill: none; stroke: #000000; stroke-width: 0.8; stroke-linejoin: miter; stroke-linecap: square"/>
   </g>
   <g id="patch_12">
    <path d="M 90 282.070588 
L 648 282.070588 
" style="fill: none; stroke: #000000; stroke-width: 0.8; stroke-linejoin: miter; stroke-linecap: square"/>
   </g>
   <g id="legend_2">
    <g id="patch_13">
     <path d="M 530.073437 319.426838 
L 641 319.426838 
Q 643 319.426838 643 317.426838 
L 643 289.070588 
Q 643 287.070588 641 287.070588 
L 530.073437 287.070588 
Q 528.073437 287.070588 528.073437 289.070588 
L 528.073437 317.426838 
Q 528.073437 319.426838 530.073437 319.426838 
z
" style="fill: #ffffff; opacity: 0.8; stroke: #cccccc; stroke-linejoin: miter"/>
    </g>
    <g id="line2d_38">
     <path d="M 532.073437 295.169026 
L 542.073437 295.169026 
L 552.073437 295.169026 
" style="fill: none; stroke: #ff0000; stroke-width: 1.5; stroke-linecap: square"/>
    </g>
    <g id="text_38">
     <!-- Membrane pot. -->
     <g transform="translate(560.073437 298.669026) scale(0.1 -0.1)">
      <use xlink:href="#DejaVuSans-4d"/>
      <use xlink:href="#DejaVuSans-65" x="86.279297"/>
      <use xlink:href="#DejaVuSans-6d" x="147.802734"/>
      <use xlink:href="#DejaVuSans-62" x="245.214844"/>
      <use xlink:href="#DejaVuSans-72" x="308.691406"/>
      <use xlink:href="#DejaVuSans-61" x="349.804688"/>
      <use xlink:href="#DejaVuSans-6e" x="411.083984"/>
      <use xlink:href="#DejaVuSans-65" x="474.462891"/>
      <use xlink:href="#DejaVuSans-20" x="535.986328"/>
      <use xlink:href="#DejaVuSans-70" x="567.773438"/>
      <use xlink:href="#DejaVuSans-6f" x="631.25"/>
      <use xlink:href="#DejaVuSans-74" x="692.431641"/>
      <use xlink:href="#DejaVuSans-2e" x="731.640625"/>
     </g>
    </g>
    <g id="line2d_39">
     <path d="M 532.073437 309.847151 
L 542.073437 309.847151 
L 552.073437 309.847151 
" style="fill: none; stroke: #ffee00; stroke-width: 1.5; stroke-linecap: square"/>
    </g>
    <g id="text_39">
     <!-- Membrane curr. -->
     <g transform="translate(560.073437 313.347151) scale(0.1 -0.1)">
      <defs>
       <path id="DejaVuSans-75" d="M 544 1381 
L 544 3500 
L 1119 3500 
L 1119 1403 
Q 1119 906 1312 657 
Q 1506 409 1894 409 
Q 2359 409 2629 706 
Q 2900 1003 2900 1516 
L 2900 3500 
L 3475 3500 
L 3475 0 
L 2900 0 
L 2900 538 
Q 2691 219 2414 64 
Q 2138 -91 1772 -91 
Q 1169 -91 856 284 
Q 544 659 544 1381 
z
M 1991 3584 
L 1991 3584 
z
" transform="scale(0.015625)"/>
      </defs>
      <use xlink:href="#DejaVuSans-4d"/>
      <use xlink:href="#DejaVuSans-65" x="86.279297"/>
      <use xlink:href="#DejaVuSans-6d" x="147.802734"/>
      <use xlink:href="#DejaVuSans-62" x="245.214844"/>
      <use xlink:href="#DejaVuSans-72" x="308.691406"/>
      <use xlink:href="#DejaVuSans-61" x="349.804688"/>
      <use xlink:href="#DejaVuSans-6e" x="411.083984"/>
      <use xlink:href="#DejaVuSans-65" x="474.462891"/>
      <use xlink:href="#DejaVuSans-20" x="535.986328"/>
      <use xlink:href="#DejaVuSans-63" x="567.773438"/>
      <use xlink:href="#DejaVuSans-75" x="622.753906"/>
      <use xlink:href="#DejaVuSans-72" x="686.132812"/>
      <use xlink:href="#DejaVuSans-72" x="725.496094"/>
      <use xlink:href="#DejaVuSans-2e" x="757.484375"/>
     </g>
    </g>
   </g>
   <g id="line2d_40">
    <path d="M 115.363636 437.717647 
L 148.385897 437.717647 
L 149.655984 424.748558 
L 151.180088 411.636526 
L 152.704193 400.878331 
L 153.97428 393.490048 
L 155.498384 386.24246 
L 156.514453 382.284574 
L 157.78454 378.212136 
L 158.80061 375.564665 
L 159.81668 373.408718 
L 161.086767 371.33846 
L 162.102836 370.112641 
L 163.118906 369.232609 
L 164.134975 368.661558 
L 164.897027 368.423052 
L 165.913097 368.312948 
L 166.929166 368.42671 
L 167.945236 368.73843 
L 169.215323 369.376681 
L 170.739427 370.436654 
L 172.517549 372.017279 
L 173.533619 373.049543 
L 175.057723 359.396097 
L 176.32781 350.185258 
L 177.343879 344.039839 
L 178.359949 338.881337 
L 179.376019 334.612761 
L 180.646106 330.408175 
L 181.662175 327.827601 
L 182.678245 325.87624 
L 183.186279 325.115686 
L 184.456366 323.792437 
L 185.472436 323.247285 
L 186.488505 323.112872 
L 187.504575 323.342705 
L 188.266627 323.738825 
L 189.282697 324.505493 
L 190.298766 325.529277 
L 191.568853 327.13073 
L 193.092958 329.423913 
L 195.125097 332.995149 
L 197.919288 338.588708 
L 199.189375 341.308325 
L 200.205445 332.985135 
L 201.221514 325.931188 
L 202.237584 320.023029 
L 203.507671 314.095154 
L 204.52374 310.364742 
L 205.53981 307.448003 
L 206.047844 306.268206 
L 207.317931 304.067674 
L 208.334001 302.975208 
L 209.350071 302.417694 
L 210.36614 302.335742 
L 211.128192 302.566242 
L 212.144262 303.187966 
L 213.160331 304.148254 
L 214.430418 305.773164 
L 215.954523 308.218529 
L 217.478627 311.118176 
L 219.256749 314.958369 
L 221.288888 319.772251 
L 224.591114 328.219145 
L 225.861201 318.656777 
L 226.87727 312.370636 
L 227.89334 307.183892 
L 228.90941 302.986799 
L 230.179497 298.997006 
L 231.195566 296.671155 
L 232.211636 295.040283 
L 233.227705 294.029997 
L 233.989757 293.652903 
L 234.497792 293.550634 
L 235.005827 293.567453 
L 236.021896 293.930607 
L 236.529931 294.263865 
L 237.800018 295.503233 
L 238.816088 296.842986 
L 240.340192 299.358393 
L 242.118314 302.92952 
L 244.150453 307.627013 
L 246.944644 314.845026 
L 249.738836 322.566474 
L 250.754905 314.925319 
L 251.770975 308.530509 
L 253.041062 302.122144 
L 254.057131 298.095864 
L 255.073201 294.954392 
L 256.08927 292.606258 
L 256.851322 291.331291 
L 257.867392 290.173131 
L 258.375427 289.816268 
L 258.883462 289.596398 
L 259.391496 289.505635 
L 260.153549 289.609788 
L 261.169618 290.112082 
L 262.185688 291.006385 
L 263.201757 292.245214 
L 264.471844 294.224757 
L 265.995948 297.100613 
L 267.77407 301.036451 
L 269.806209 306.085952 
L 272.600401 313.695419 
L 275.394592 321.721191 
L 276.410661 314.209868 
L 277.426731 307.932243 
L 278.442801 302.766554 
L 279.712888 297.722358 
L 280.728957 294.663971 
L 281.745027 292.39032 
L 282.253061 291.521638 
L 283.523148 290.070424 
L 284.031183 289.741603 
L 284.539218 289.548183 
L 285.047253 289.482353 
L 285.555287 289.536658 
L 286.571357 289.977566 
L 287.333409 290.586226 
L 288.349479 291.692807 
L 289.365548 293.117583 
L 290.635635 295.296336 
L 292.15974 298.367927 
L 294.191879 303.093572 
L 296.98607 310.423139 
L 300.796331 321.257243 
L 309.68694 346.785353 
L 313.4972 356.908588 
L 317.053444 365.671825 
L 319.847635 372.061946 
L 323.149861 379.034453 
L 325.944052 384.450612 
L 328.738244 389.436682 
L 331.786452 394.404763 
L 334.580644 398.555302 
L 337.374835 402.34186 
L 340.169026 405.789048 
L 343.217235 409.189936 
L 346.519461 412.489663 
L 349.821687 415.424957 
L 353.123913 418.031871 
L 356.426139 420.343965 
L 359.728365 422.392164 
L 363.030591 424.204754 
L 366.840852 426.036799 
L 370.651113 427.624752 
L 374.969409 429.168744 
L 377.001548 429.812161 
L 378.271635 416.758722 
L 379.795739 403.60891 
L 381.319843 392.872586 
L 382.58993 385.541495 
L 384.114035 378.39986 
L 385.130104 374.532218 
L 386.400191 370.591668 
L 387.416261 368.061741 
L 388.43233 366.032756 
L 389.702417 364.132779 
L 390.718487 363.049938 
L 391.734556 362.318059 
L 392.750626 361.899295 
L 393.512678 361.777616 
L 394.528748 361.824801 
L 395.544817 362.097643 
L 396.560887 362.569546 
L 398.339009 363.808876 
L 399.863113 365.205734 
L 401.641235 367.152703 
L 403.673374 369.68232 
L 406.467565 373.532498 
L 411.293895 380.65708 
L 417.898348 390.362802 
L 422.216643 396.270472 
L 426.026904 401.073179 
L 429.32913 404.89589 
L 432.631356 408.397584 
L 435.933582 411.584241 
L 439.235808 414.468759 
L 442.284017 416.877026 
L 445.586243 419.23109 
L 448.888469 421.338913 
L 452.69873 423.492153 
L 456.508991 425.376584 
L 460.319252 427.021815 
L 464.637547 428.631804 
L 468.955843 430.006209 
L 473.528156 431.240969 
L 478.862521 432.43801 
L 484.704921 433.500235 
L 490.801338 434.384062 
L 497.913825 435.185721 
L 506.042382 435.869969 
L 515.441025 436.434963 
L 526.871808 436.895262 
L 541.350799 437.249592 
L 561.67219 437.5056 
L 593.678381 437.656749 
L 622.636364 437.697956 
L 622.636364 437.697956 
" clip-path="url(#p377623b8fd)" style="fill: none; stroke: #ff0000; stroke-width: 1.5; stroke-linecap: square"/>
   </g>
  </g>
  <g id="axes_3">
   <g id="patch_14">
    <path d="M 90 640.8 
L 648 640.8 
L 648 477.741176 
L 90 477.741176 
z
" style="fill: #ffffff"/>
   </g>
   <g id="matplotlib.axis_5">
    <g id="xtick_19">
     <g id="line2d_41">
      <g>
       <use xlink:href="#m69d6239296" x="115.363636" y="640.8" style="stroke: #000000; stroke-width: 0.8"/>
      </g>
     </g>
     <g id="text_40">
      <!-- 0 -->
      <g transform="translate(112.182386 655.398438) scale(0.1 -0.1)">
       <use xlink:href="#DejaVuSans-30"/>
      </g>
     </g>
    </g>
    <g id="xtick_20">
     <g id="line2d_42">
      <g>
       <use xlink:href="#m69d6239296" x="178.867984" y="640.8" style="stroke: #000000; stroke-width: 0.8"/>
      </g>
     </g>
     <g id="text_41">
      <!-- 25 -->
      <g transform="translate(172.505484 655.398438) scale(0.1 -0.1)">
       <use xlink:href="#DejaVuSans-32"/>
       <use xlink:href="#DejaVuSans-35" x="63.623047"/>
      </g>
     </g>
    </g>
    <g id="xtick_21">
     <g id="line2d_43">
      <g>
       <use xlink:href="#m69d6239296" x="242.372331" y="640.8" style="stroke: #000000; stroke-width: 0.8"/>
      </g>
     </g>
     <g id="text_42">
      <!-- 50 -->
      <g transform="translate(236.009831 655.398438) scale(0.1 -0.1)">
       <use xlink:href="#DejaVuSans-35"/>
       <use xlink:href="#DejaVuSans-30" x="63.623047"/>
      </g>
     </g>
    </g>
    <g id="xtick_22">
     <g id="line2d_44">
      <g>
       <use xlink:href="#m69d6239296" x="305.876679" y="640.8" style="stroke: #000000; stroke-width: 0.8"/>
      </g>
     </g>
     <g id="text_43">
      <!-- 75 -->
      <g transform="translate(299.514179 655.398438) scale(0.1 -0.1)">
       <use xlink:href="#DejaVuSans-37"/>
       <use xlink:href="#DejaVuSans-35" x="63.623047"/>
      </g>
     </g>
    </g>
    <g id="xtick_23">
     <g id="line2d_45">
      <g>
       <use xlink:href="#m69d6239296" x="369.381026" y="640.8" style="stroke: #000000; stroke-width: 0.8"/>
      </g>
     </g>
     <g id="text_44">
      <!-- 100 -->
      <g transform="translate(359.837276 655.398438) scale(0.1 -0.1)">
       <use xlink:href="#DejaVuSans-31"/>
       <use xlink:href="#DejaVuSans-30" x="63.623047"/>
       <use xlink:href="#DejaVuSans-30" x="127.246094"/>
      </g>
     </g>
    </g>
    <g id="xtick_24">
     <g id="line2d_46">
      <g>
       <use xlink:href="#m69d6239296" x="432.885374" y="640.8" style="stroke: #000000; stroke-width: 0.8"/>
      </g>
     </g>
     <g id="text_45">
      <!-- 125 -->
      <g transform="translate(423.341624 655.398438) scale(0.1 -0.1)">
       <use xlink:href="#DejaVuSans-31"/>
       <use xlink:href="#DejaVuSans-32" x="63.623047"/>
       <use xlink:href="#DejaVuSans-35" x="127.246094"/>
      </g>
     </g>
    </g>
    <g id="xtick_25">
     <g id="line2d_47">
      <g>
       <use xlink:href="#m69d6239296" x="496.389721" y="640.8" style="stroke: #000000; stroke-width: 0.8"/>
      </g>
     </g>
     <g id="text_46">
      <!-- 150 -->
      <g transform="translate(486.845971 655.398438) scale(0.1 -0.1)">
       <use xlink:href="#DejaVuSans-31"/>
       <use xlink:href="#DejaVuSans-35" x="63.623047"/>
       <use xlink:href="#DejaVuSans-30" x="127.246094"/>
      </g>
     </g>
    </g>
    <g id="xtick_26">
     <g id="line2d_48">
      <g>
       <use xlink:href="#m69d6239296" x="559.894068" y="640.8" style="stroke: #000000; stroke-width: 0.8"/>
      </g>
     </g>
     <g id="text_47">
      <!-- 175 -->
      <g transform="translate(550.350318 655.398438) scale(0.1 -0.1)">
       <use xlink:href="#DejaVuSans-31"/>
       <use xlink:href="#DejaVuSans-37" x="63.623047"/>
       <use xlink:href="#DejaVuSans-35" x="127.246094"/>
      </g>
     </g>
    </g>
    <g id="xtick_27">
     <g id="line2d_49">
      <g>
       <use xlink:href="#m69d6239296" x="623.398416" y="640.8" style="stroke: #000000; stroke-width: 0.8"/>
      </g>
     </g>
     <g id="text_48">
      <!-- 200 -->
      <g transform="translate(613.854666 655.398438) scale(0.1 -0.1)">
       <use xlink:href="#DejaVuSans-32"/>
       <use xlink:href="#DejaVuSans-30" x="63.623047"/>
       <use xlink:href="#DejaVuSans-30" x="127.246094"/>
      </g>
     </g>
    </g>
    <g id="text_49">
     <!-- Time (ms) -->
     <g transform="translate(343.800781 669.076563) scale(0.1 -0.1)">
      <use xlink:href="#DejaVuSans-54"/>
      <use xlink:href="#DejaVuSans-69" x="57.958984"/>
      <use xlink:href="#DejaVuSans-6d" x="85.742188"/>
      <use xlink:href="#DejaVuSans-65" x="183.154297"/>
      <use xlink:href="#DejaVuSans-20" x="244.677734"/>
      <use xlink:href="#DejaVuSans-28" x="276.464844"/>
      <use xlink:href="#DejaVuSans-6d" x="315.478516"/>
      <use xlink:href="#DejaVuSans-73" x="412.890625"/>
      <use xlink:href="#DejaVuSans-29" x="464.990234"/>
     </g>
    </g>
   </g>
   <g id="matplotlib.axis_6">
    <g id="ytick_12">
     <g id="line2d_50">
      <g>
       <use xlink:href="#m152ee11a67" x="90" y="633.388235" style="stroke: #000000; stroke-width: 0.8"/>
      </g>
     </g>
     <g id="text_50">
      <!-- 0 -->
      <g transform="translate(76.6375 637.187454) scale(0.1 -0.1)">
       <use xlink:href="#DejaVuSans-30"/>
      </g>
     </g>
    </g>
    <g id="ytick_13">
     <g id="line2d_51">
      <g>
       <use xlink:href="#m152ee11a67" x="90" y="594.492776" style="stroke: #000000; stroke-width: 0.8"/>
      </g>
     </g>
     <g id="text_51">
      <!-- 1 -->
      <g transform="translate(76.6375 598.291995) scale(0.1 -0.1)">
       <use xlink:href="#DejaVuSans-31"/>
      </g>
     </g>
    </g>
    <g id="ytick_14">
     <g id="line2d_52">
      <g>
       <use xlink:href="#m152ee11a67" x="90" y="555.597317" style="stroke: #000000; stroke-width: 0.8"/>
      </g>
     </g>
     <g id="text_52">
      <!-- 2 -->
      <g transform="translate(76.6375 559.396535) scale(0.1 -0.1)">
       <use xlink:href="#DejaVuSans-32"/>
      </g>
     </g>
    </g>
    <g id="ytick_15">
     <g id="line2d_53">
      <g>
       <use xlink:href="#m152ee11a67" x="90" y="516.701857" style="stroke: #000000; stroke-width: 0.8"/>
      </g>
     </g>
     <g id="text_53">
      <!-- 3 -->
      <g transform="translate(76.6375 520.501076) scale(0.1 -0.1)">
       <use xlink:href="#DejaVuSans-33"/>
      </g>
     </g>
    </g>
    <g id="ytick_16">
     <g id="line2d_54">
      <g>
       <use xlink:href="#m152ee11a67" x="90" y="477.806398" style="stroke: #000000; stroke-width: 0.8"/>
      </g>
     </g>
     <g id="text_54">
      <!-- 4 -->
      <g transform="translate(76.6375 481.605617) scale(0.1 -0.1)">
       <use xlink:href="#DejaVuSans-34"/>
      </g>
     </g>
    </g>
    <g id="text_55">
     <!-- Calcium or protein amount -->
     <g transform="translate(70.557812 626.336994) rotate(-90) scale(0.1 -0.1)">
      <defs>
       <path id="DejaVuSans-43" d="M 4122 4306 
L 4122 3641 
Q 3803 3938 3442 4084 
Q 3081 4231 2675 4231 
Q 1875 4231 1450 3742 
Q 1025 3253 1025 2328 
Q 1025 1406 1450 917 
Q 1875 428 2675 428 
Q 3081 428 3442 575 
Q 3803 722 4122 1019 
L 4122 359 
Q 3791 134 3420 21 
Q 3050 -91 2638 -91 
Q 1578 -91 968 557 
Q 359 1206 359 2328 
Q 359 3453 968 4101 
Q 1578 4750 2638 4750 
Q 3056 4750 3426 4639 
Q 3797 4528 4122 4306 
z
" transform="scale(0.015625)"/>
      </defs>
      <use xlink:href="#DejaVuSans-43"/>
      <use xlink:href="#DejaVuSans-61" x="69.824219"/>
      <use xlink:href="#DejaVuSans-6c" x="131.103516"/>
      <use xlink:href="#DejaVuSans-63" x="158.886719"/>
      <use xlink:href="#DejaVuSans-69" x="213.867188"/>
      <use xlink:href="#DejaVuSans-75" x="241.650391"/>
      <use xlink:href="#DejaVuSans-6d" x="305.029297"/>
      <use xlink:href="#DejaVuSans-20" x="402.441406"/>
      <use xlink:href="#DejaVuSans-6f" x="434.228516"/>
      <use xlink:href="#DejaVuSans-72" x="495.410156"/>
      <use xlink:href="#DejaVuSans-20" x="536.523438"/>
      <use xlink:href="#DejaVuSans-70" x="568.310547"/>
      <use xlink:href="#DejaVuSans-72" x="631.787109"/>
      <use xlink:href="#DejaVuSans-6f" x="670.650391"/>
      <use xlink:href="#DejaVuSans-74" x="731.832031"/>
      <use xlink:href="#DejaVuSans-65" x="771.041016"/>
      <use xlink:href="#DejaVuSans-69" x="832.564453"/>
      <use xlink:href="#DejaVuSans-6e" x="860.347656"/>
      <use xlink:href="#DejaVuSans-20" x="923.726562"/>
      <use xlink:href="#DejaVuSans-61" x="955.513672"/>
      <use xlink:href="#DejaVuSans-6d" x="1016.792969"/>
      <use xlink:href="#DejaVuSans-6f" x="1114.205078"/>
      <use xlink:href="#DejaVuSans-75" x="1175.386719"/>
      <use xlink:href="#DejaVuSans-6e" x="1238.765625"/>
      <use xlink:href="#DejaVuSans-74" x="1302.144531"/>
     </g>
    </g>
   </g>
   <g id="patch_15">
    <path d="M 90 640.8 
L 90 477.741176 
" style="fill: none; stroke: #000000; stroke-width: 0.8; stroke-linejoin: miter; stroke-linecap: square"/>
   </g>
   <g id="patch_16">
    <path d="M 648 640.8 
L 648 477.741176 
" style="fill: none; stroke: #000000; stroke-width: 0.8; stroke-linejoin: miter; stroke-linecap: square"/>
   </g>
   <g id="patch_17">
    <path d="M 90 640.8 
L 648 640.8 
" style="fill: none; stroke: #000000; stroke-width: 0.8; stroke-linejoin: miter; stroke-linecap: square"/>
   </g>
   <g id="patch_18">
    <path d="M 90 477.741176 
L 648 477.741176 
" style="fill: none; stroke: #000000; stroke-width: 0.8; stroke-linejoin: miter; stroke-linecap: square"/>
   </g>
   <g id="legend_3">
    <g id="patch_19">
     <path d="M 552.795313 544.453676 
L 641 544.453676 
Q 643 544.453676 643 542.453676 
L 643 484.741176 
Q 643 482.741176 641 482.741176 
L 552.795313 482.741176 
Q 550.795313 482.741176 550.795313 484.741176 
L 550.795313 542.453676 
Q 550.795313 544.453676 552.795313 544.453676 
z
" style="fill: #ffffff; opacity: 0.8; stroke: #cccccc; stroke-linejoin: miter"/>
    </g>
    <g id="line2d_55">
     <path d="M 554.795313 490.839614 
L 564.795313 490.839614 
L 574.795313 490.839614 
" style="fill: none; stroke: #c8c896; stroke-width: 1.5; stroke-linecap: square"/>
    </g>
    <g id="text_56">
     <!-- Ca -->
     <g transform="translate(582.795313 494.339614) scale(0.1 -0.1)">
      <use xlink:href="#DejaVuSans-43"/>
      <use xlink:href="#DejaVuSans-61" x="69.824219"/>
     </g>
    </g>
    <g id="line2d_56">
     <path d="M 554.795313 505.517739 
L 564.795313 505.517739 
L 574.795313 505.517739 
" style="fill: none; stroke: #008000; stroke-width: 1.5; stroke-linecap: square"/>
    </g>
    <g id="text_57">
     <!-- p -->
     <g transform="translate(582.795313 509.017739) scale(0.1 -0.1)">
      <use xlink:href="#DejaVuSans-70"/>
     </g>
    </g>
    <g id="line2d_57">
     <path d="M 554.795313 520.195864 
L 564.795313 520.195864 
L 574.795313 520.195864 
" style="fill: none; stroke-dasharray: 5.55,2.4; stroke-dashoffset: 0; stroke: #969664; stroke-width: 1.5"/>
    </g>
    <g id="text_58">
     <!-- LTP thresh. -->
     <g transform="translate(582.795313 523.695864) scale(0.1 -0.1)">
      <defs>
       <path id="DejaVuSans-4c" d="M 628 4666 
L 1259 4666 
L 1259 531 
L 3531 531 
L 3531 0 
L 628 0 
L 628 4666 
z
" transform="scale(0.015625)"/>
      </defs>
      <use xlink:href="#DejaVuSans-4c"/>
      <use xlink:href="#DejaVuSans-54" x="41.962891"/>
      <use xlink:href="#DejaVuSans-50" x="103.046875"/>
      <use xlink:href="#DejaVuSans-20" x="163.349609"/>
      <use xlink:href="#DejaVuSans-74" x="195.136719"/>
      <use xlink:href="#DejaVuSans-68" x="234.345703"/>
      <use xlink:href="#DejaVuSans-72" x="297.724609"/>
      <use xlink:href="#DejaVuSans-65" x="336.587891"/>
      <use xlink:href="#DejaVuSans-73" x="398.111328"/>
      <use xlink:href="#DejaVuSans-68" x="450.210938"/>
      <use xlink:href="#DejaVuSans-2e" x="513.589844"/>
     </g>
    </g>
    <g id="line2d_58">
     <path d="M 554.795313 534.873989 
L 564.795313 534.873989 
L 574.795313 534.873989 
" style="fill: none; stroke-dasharray: 5.55,2.4; stroke-dashoffset: 0; stroke: #969696; stroke-width: 1.5"/>
    </g>
    <g id="text_59">
     <!-- LTD thresh. -->
     <g transform="translate(582.795313 538.373989) scale(0.1 -0.1)">
      <defs>
       <path id="DejaVuSans-44" d="M 1259 4147 
L 1259 519 
L 2022 519 
Q 2988 519 3436 956 
Q 3884 1394 3884 2338 
Q 3884 3275 3436 3711 
Q 2988 4147 2022 4147 
L 1259 4147 
z
M 628 4666 
L 1925 4666 
Q 3281 4666 3915 4102 
Q 4550 3538 4550 2338 
Q 4550 1131 3912 565 
Q 3275 0 1925 0 
L 628 0 
L 628 4666 
z
" transform="scale(0.015625)"/>
      </defs>
      <use xlink:href="#DejaVuSans-4c"/>
      <use xlink:href="#DejaVuSans-54" x="41.962891"/>
      <use xlink:href="#DejaVuSans-44" x="103.046875"/>
      <use xlink:href="#DejaVuSans-20" x="180.048828"/>
      <use xlink:href="#DejaVuSans-74" x="211.835938"/>
      <use xlink:href="#DejaVuSans-68" x="251.044922"/>
      <use xlink:href="#DejaVuSans-72" x="314.423828"/>
      <use xlink:href="#DejaVuSans-65" x="353.287109"/>
      <use xlink:href="#DejaVuSans-73" x="414.810547"/>
      <use xlink:href="#DejaVuSans-68" x="466.910156"/>
      <use xlink:href="#DejaVuSans-2e" x="530.289062"/>
     </g>
    </g>
   </g>
   <g id="line2d_59">
    <path d="M 90 586.713684 
L 648 586.713684 
" clip-path="url(#p5ca3a03273)" style="fill: none; stroke-dasharray: 5.55,2.4; stroke-dashoffset: 0; stroke: #969696; stroke-width: 1.5"/>
   </g>
   <g id="line2d_60">
    <path d="M 90 516.701857 
L 648 516.701857 
" clip-path="url(#p5ca3a03273)" style="fill: none; stroke-dasharray: 5.55,2.4; stroke-dashoffset: 0; stroke: #969664; stroke-width: 1.5"/>
   </g>
   <g id="line2d_61">
    <path d="M 115.363636 633.388235 
L 622.636364 633.388235 
L 622.636364 633.388235 
" clip-path="url(#p5ca3a03273)" style="fill: none; stroke: #008000; stroke-width: 1.5; stroke-linecap: square"/>
   </g>
   <g id="line2d_62">
    <path d="M 115.363636 633.388235 
L 187.758592 633.388235 
L 188.266627 594.492776 
L 197.919288 597.412206 
L 207.825966 600.180695 
L 213.160331 601.582143 
L 213.668366 562.817037 
L 221.288888 567.032871 
L 228.90941 570.996858 
L 236.529931 574.72404 
L 238.816088 575.798107 
L 239.324123 537.138673 
L 245.928575 542.142115 
L 253.041062 547.239977 
L 260.153549 552.053025 
L 263.963809 554.519866 
L 264.471844 515.947637 
L 270.822279 521.82406 
L 277.426731 527.623617 
L 284.031183 533.12169 
L 289.365548 537.353208 
L 289.873583 498.851335 
L 295.97 505.320239 
L 302.066418 511.4781 
L 308.416853 517.578166 
L 315.021305 523.598442 
L 315.529339 485.152941 
L 321.625757 492.280501 
L 327.976192 499.341166 
L 334.072609 505.786517 
L 340.169026 511.921958 
L 346.519461 517.999815 
L 353.123913 523.998172 
L 359.728365 529.68471 
L 366.0788 534.873766 
L 373.191287 540.377706 
L 379.795739 545.212769 
L 386.908226 550.139076 
L 394.020713 554.790153 
L 401.1332 559.181378 
L 408.753721 563.614402 
L 416.374243 567.782604 
L 416.882278 529.15602 
L 423.232713 534.371529 
L 429.837165 539.518818 
L 436.441617 544.39853 
L 443.554104 549.370328 
L 450.666591 554.064355 
L 457.52506 558.342347 
L 465.145582 562.825494 
L 472.766104 567.040824 
L 480.386625 571.004335 
L 488.007147 574.731071 
L 496.389721 578.573769 
L 504.518277 582.059545 
L 513.154869 585.52064 
L 521.79146 588.748352 
L 530.682069 591.843727 
L 540.334729 594.96199 
L 550.241408 597.919033 
L 560.402103 600.715748 
L 570.816816 603.353617 
L 581.739564 605.891668 
L 593.170346 608.318411 
L 605.109164 610.624656 
L 617.556016 612.803454 
L 622.636364 613.63162 
L 622.636364 613.63162 
" clip-path="url(#p5ca3a03273)" style="fill: none; stroke: #c8c896; stroke-width: 1.5; stroke-linecap: square"/>
   </g>
  </g>
  <g id="axes_4">
   <g id="matplotlib.axis_7">
    <g id="ytick_17">
     <g id="line2d_63">
      <defs>
       <path id="m997c292d11" d="M 0 0 
L 3.5 0 
" style="stroke: #000000; stroke-width: 0.8"/>
      </defs>
      <g>
       <use xlink:href="#m997c292d11" x="648" y="433.673026" style="stroke: #000000; stroke-width: 0.8"/>
      </g>
     </g>
     <g id="text_60">
      <!-- −0.1 -->
      <g transform="translate(655 437.472245) scale(0.1 -0.1)">
       <use xlink:href="#DejaVuSans-2212"/>
       <use xlink:href="#DejaVuSans-30" x="83.789062"/>
       <use xlink:href="#DejaVuSans-2e" x="147.412109"/>
       <use xlink:href="#DejaVuSans-31" x="179.199219"/>
      </g>
     </g>
    </g>
    <g id="ytick_18">
     <g id="line2d_64">
      <g>
       <use xlink:href="#m997c292d11" x="648" y="406.113896" style="stroke: #000000; stroke-width: 0.8"/>
      </g>
     </g>
     <g id="text_61">
      <!-- 0.0 -->
      <g transform="translate(655 409.913115) scale(0.1 -0.1)">
       <use xlink:href="#DejaVuSans-30"/>
       <use xlink:href="#DejaVuSans-2e" x="63.623047"/>
       <use xlink:href="#DejaVuSans-30" x="95.410156"/>
      </g>
     </g>
    </g>
    <g id="ytick_19">
     <g id="line2d_65">
      <g>
       <use xlink:href="#m997c292d11" x="648" y="378.554767" style="stroke: #000000; stroke-width: 0.8"/>
      </g>
     </g>
     <g id="text_62">
      <!-- 0.1 -->
      <g transform="translate(655 382.353985) scale(0.1 -0.1)">
       <use xlink:href="#DejaVuSans-30"/>
       <use xlink:href="#DejaVuSans-2e" x="63.623047"/>
       <use xlink:href="#DejaVuSans-31" x="95.410156"/>
      </g>
     </g>
    </g>
    <g id="ytick_20">
     <g id="line2d_66">
      <g>
       <use xlink:href="#m997c292d11" x="648" y="350.995637" style="stroke: #000000; stroke-width: 0.8"/>
      </g>
     </g>
     <g id="text_63">
      <!-- 0.2 -->
      <g transform="translate(655 354.794856) scale(0.1 -0.1)">
       <use xlink:href="#DejaVuSans-30"/>
       <use xlink:href="#DejaVuSans-2e" x="63.623047"/>
       <use xlink:href="#DejaVuSans-32" x="95.410156"/>
      </g>
     </g>
    </g>
    <g id="ytick_21">
     <g id="line2d_67">
      <g>
       <use xlink:href="#m997c292d11" x="648" y="323.436508" style="stroke: #000000; stroke-width: 0.8"/>
      </g>
     </g>
     <g id="text_64">
      <!-- 0.3 -->
      <g transform="translate(655 327.235726) scale(0.1 -0.1)">
       <use xlink:href="#DejaVuSans-30"/>
       <use xlink:href="#DejaVuSans-2e" x="63.623047"/>
       <use xlink:href="#DejaVuSans-33" x="95.410156"/>
      </g>
     </g>
    </g>
    <g id="ytick_22">
     <g id="line2d_68">
      <g>
       <use xlink:href="#m997c292d11" x="648" y="295.877378" style="stroke: #000000; stroke-width: 0.8"/>
      </g>
     </g>
     <g id="text_65">
      <!-- 0.4 -->
      <g transform="translate(655 299.676597) scale(0.1 -0.1)">
       <use xlink:href="#DejaVuSans-30"/>
       <use xlink:href="#DejaVuSans-2e" x="63.623047"/>
       <use xlink:href="#DejaVuSans-34" x="95.410156"/>
      </g>
     </g>
    </g>
    <g id="text_66">
     <!-- Current (nA) -->
     <g transform="translate(690.88125 394.45625) rotate(-90) scale(0.1 -0.1)">
      <defs>
       <path id="DejaVuSans-41" d="M 2188 4044 
L 1331 1722 
L 3047 1722 
L 2188 4044 
z
M 1831 4666 
L 2547 4666 
L 4325 0 
L 3669 0 
L 3244 1197 
L 1141 1197 
L 716 0 
L 50 0 
L 1831 4666 
z
" transform="scale(0.015625)"/>
      </defs>
      <use xlink:href="#DejaVuSans-43"/>
      <use xlink:href="#DejaVuSans-75" x="69.824219"/>
      <use xlink:href="#DejaVuSans-72" x="133.203125"/>
      <use xlink:href="#DejaVuSans-72" x="172.566406"/>
      <use xlink:href="#DejaVuSans-65" x="211.429688"/>
      <use xlink:href="#DejaVuSans-6e" x="272.953125"/>
      <use xlink:href="#DejaVuSans-74" x="336.332031"/>
      <use xlink:href="#DejaVuSans-20" x="375.541016"/>
      <use xlink:href="#DejaVuSans-28" x="407.328125"/>
      <use xlink:href="#DejaVuSans-6e" x="446.341797"/>
      <use xlink:href="#DejaVuSans-41" x="509.720703"/>
      <use xlink:href="#DejaVuSans-29" x="578.128906"/>
     </g>
    </g>
   </g>
   <g id="patch_20">
    <path d="M 90 445.129412 
L 90 282.070588 
" style="fill: none; stroke: #000000; stroke-width: 0.8; stroke-linejoin: miter; stroke-linecap: square"/>
   </g>
   <g id="patch_21">
    <path d="M 648 445.129412 
L 648 282.070588 
" style="fill: none; stroke: #000000; stroke-width: 0.8; stroke-linejoin: miter; stroke-linecap: square"/>
   </g>
   <g id="patch_22">
    <path d="M 90 445.129412 
L 648 445.129412 
" style="fill: none; stroke: #000000; stroke-width: 0.8; stroke-linejoin: miter; stroke-linecap: square"/>
   </g>
   <g id="patch_23">
    <path d="M 90 282.070588 
L 648 282.070588 
" style="fill: none; stroke: #000000; stroke-width: 0.8; stroke-linejoin: miter; stroke-linecap: square"/>
   </g>
   <g id="line2d_69">
    <path d="M 115.363636 406.113896 
L 147.877862 406.113896 
L 148.385897 290.344883 
L 150.164019 313.098739 
L 151.688123 329.801947 
L 153.466245 346.418928 
L 154.990349 358.559643 
L 156.514453 368.997584 
L 158.292575 379.292329 
L 159.81668 386.742283 
L 161.086767 392.084046 
L 162.610871 397.610097 
L 164.134975 402.273735 
L 165.405062 405.573821 
L 166.929166 408.939598 
L 167.945236 410.857061 
L 169.723358 413.657373 
L 171.247462 415.579736 
L 172.517549 416.881379 
L 173.025584 417.337319 
L 173.533619 301.988622 
L 175.057723 322.807411 
L 176.835845 343.418894 
L 178.359949 358.398154 
L 179.884053 371.203681 
L 181.15414 380.394645 
L 182.678245 389.911389 
L 183.948332 396.689763 
L 185.472436 403.652471 
L 186.99654 409.473689 
L 188.266627 413.549666 
L 189.790732 417.658879 
L 190.806801 419.969372 
L 192.584923 423.284424 
L 194.109027 425.502325 
L 195.379114 426.959162 
L 196.903218 428.320462 
L 198.427323 429.307754 
L 199.189375 313.903465 
L 200.713479 334.186849 
L 202.237584 351.57542 
L 203.507671 364.093215 
L 205.031775 377.096484 
L 206.047844 384.654831 
L 207.825966 395.985528 
L 209.350071 404.049091 
L 210.620158 409.730553 
L 212.144262 415.498468 
L 213.668366 420.244825 
L 215.446488 424.662919 
L 216.970592 427.649216 
L 218.240679 429.63502 
L 219.764784 431.519514 
L 221.288888 432.921728 
L 223.06701 434.03489 
L 224.083079 434.462148 
L 224.591114 319.237334 
L 226.369236 342.237487 
L 227.89334 358.910011 
L 228.90941 368.63884 
L 230.687531 383.295025 
L 232.211636 393.793384 
L 233.481723 401.241461 
L 235.005827 408.859684 
L 236.529931 415.192791 
L 238.308053 421.170857 
L 239.832157 425.282037 
L 241.102244 428.071446 
L 242.626349 430.784034 
L 244.150453 432.881526 
L 245.42054 434.214647 
L 246.944644 435.406897 
L 248.468749 436.206139 
L 249.230801 436.470356 
L 249.738836 321.230139 
L 251.26294 341.147654 
L 252.533027 355.498799 
L 254.057131 370.421413 
L 255.581235 383.099783 
L 256.851322 392.137938 
L 258.375427 401.42988 
L 259.391496 406.770485 
L 261.169618 414.661422 
L 262.693722 420.167587 
L 263.963809 423.965116 
L 265.487914 427.729224 
L 267.012018 430.723683 
L 268.282105 432.699043 
L 269.806209 434.554654 
L 271.330314 435.91261 
L 272.600401 436.709666 
L 274.124505 437.340853 
L 274.63254 437.479183 
L 275.394592 322.648281 
L 276.918696 342.363695 
L 278.442801 359.224386 
L 279.712888 371.330385 
L 281.236992 383.871275 
L 282.253061 391.13922 
L 284.031183 401.993377 
L 285.555287 409.67864 
L 286.825374 415.06421 
L 288.349479 420.499096 
L 289.873583 424.93456 
L 291.651705 429.01561 
L 293.175809 431.733618 
L 294.445896 433.509088 
L 295.97 435.156363 
L 297.494105 436.336627 
L 298.764192 437.006381 
L 300.288296 437.506199 
L 301.8124 437.714198 
L 303.590522 437.644956 
L 305.114626 437.374818 
L 307.400783 436.669192 
L 309.68694 435.694911 
L 312.735148 434.115191 
L 317.307461 431.399704 
L 328.738244 424.461736 
L 333.564574 421.849511 
L 337.88287 419.745837 
L 342.201165 417.870066 
L 346.519461 416.215623 
L 350.837757 414.768531 
L 355.918104 413.307006 
L 361.25247 412.021038 
L 366.840852 410.907813 
L 373.191287 409.886633 
L 376.493513 409.442087 
L 377.001548 289.482353 
L 378.77967 312.833502 
L 380.303774 329.959903 
L 382.081896 346.980138 
L 383.606 359.401381 
L 385.130104 370.067604 
L 386.400191 377.759818 
L 387.924296 385.765327 
L 388.940365 390.428009 
L 390.718487 397.435641 
L 392.242591 402.439608 
L 393.512678 405.97802 
L 395.036782 409.584388 
L 396.560887 412.567968 
L 398.339009 415.365811 
L 399.863113 417.274445 
L 401.1332 418.557443 
L 402.657304 419.791256 
L 404.181408 420.728964 
L 405.95953 421.501483 
L 407.483635 421.938432 
L 409.261756 422.221871 
L 411.293895 422.309568 
L 413.580052 422.163199 
L 416.374243 421.725896 
L 419.422452 421.025544 
L 424.5028 419.557058 
L 441.267947 414.455508 
L 447.364365 412.927625 
L 453.714799 411.582496 
L 460.319252 410.432647 
L 466.923704 409.506097 
L 474.544225 408.668649 
L 483.180817 407.958235 
L 493.087495 407.377899 
L 505.026312 406.912606 
L 520.267356 406.556837 
L 541.350799 406.309188 
L 575.135112 406.166294 
L 622.636364 406.122121 
L 622.636364 406.122121 
" clip-path="url(#p377623b8fd)" style="fill: none; stroke: #ffee00; stroke-width: 1.5; stroke-linecap: square"/>
   </g>
  </g>
 </g>
 <defs>
  <clipPath id="p519e233a3b">
   <rect x="90" y="86.4" width="558" height="163.058824"/>
  </clipPath>
  <clipPath id="p377623b8fd">
   <rect x="90" y="282.070588" width="558" height="163.058824"/>
  </clipPath>
  <clipPath id="p5ca3a03273">
   <rect x="90" y="477.741176" width="558" height="163.058824"/>
  </clipPath>
 </defs>
</svg>
